<svg xmlns="http://www.w3.org/2000/svg" width="287.80914306640625" height="284.7519226074219" viewBox="-40.233482360839844 -41.409141540527344 287.80914306640625 284.7519226074219"><title>Neo4j Graph Visualization</title><desc>Created using Neo4j (http://www.neo4j.com/)</desc><g class="layer relationships"><g class="relationship" transform="translate(148.61951910436954 214.34277615205204) rotate(248.6763728069575)"><path class="outline" fill="#A5ABB6" stroke="none" d="M 25 0.5 L 32.16591451308971 0.5 L 32.16591451308971 -0.5 L 25 -0.5 Z M 77.72841451308972 0.5 L 84.89432902617942 0.5 L 84.89432902617942 3.5 L 91.89432902617942 0 L 84.89432902617942 -3.5 L 84.89432902617942 -0.5 L 77.72841451308972 -0.5 Z"/><text text-anchor="middle" pointer-events="none" font-size="8px" fill="#000000" x="54.94716451308971" y="3" transform="rotate(180 54.94716451308971 0)" font-family="sans-serif">ACTED_IN</text></g><g class="relationship" transform="translate(218.57564931345462 137.37558764812152) rotate(195.8475725416199)"><path class="outline" fill="#A5ABB6" stroke="none" d="M 25 0.5 L 32.17198808006083 0.5 L 32.17198808006083 -0.5 L 25 -0.5 Z M 77.73448808006083 0.5 L 84.90647616012166 0.5 L 84.90647616012166 3.5 L 91.90647616012166 0 L 84.90647616012166 -3.5 L 84.90647616012166 -0.5 L 77.73448808006083 -0.5 Z"/><text text-anchor="middle" pointer-events="none" font-size="8px" fill="#000000" x="54.95323808006083" y="3" transform="rotate(180 54.95323808006083 0)" font-family="sans-serif">ACTED_IN</text></g><g class="relationship" transform="translate(199.3637244589641 34.13262479235961) rotate(502.59132148044944)"><path class="outline" fill="#A5ABB6" stroke="none" d="M 25 0.5 L 32.417268904115346 0.5 L 32.417268904115346 -0.5 L 25 -0.5 Z M 77.97976890411535 0.5 L 85.39703780823069 0.5 L 85.39703780823069 3.5 L 92.39703780823069 0 L 85.39703780823069 -3.5 L 85.39703780823069 -0.5 L 77.97976890411535 -0.5 Z"/><text text-anchor="middle" pointer-events="none" font-size="8px" fill="#000000" x="55.198518904115346" y="3" transform="rotate(180 55.198518904115346 0)" font-family="sans-serif">ACTED_IN</text></g><g class="relationship" transform="translate(105.7376956877694 -12.40914130523819) rotate(449.81774554326785)"><path class="outline" fill="#A5ABB6" stroke="none" d="M 25 0.5 L 36.65491549711967 0.5 L 36.65491549711967 -0.5 L 25 -0.5 Z M 74.20569674711967 0.5 L 85.86061224423933 0.5 L 85.86061224423933 3.5 L 92.86061224423933 0 L 85.86061224423933 -3.5 L 85.86061224423933 -0.5 L 74.20569674711967 -0.5 Z"/><text text-anchor="middle" pointer-events="none" font-size="8px" fill="#000000" x="55.43030612211967" y="3" font-family="sans-serif">WRITED</text></g><g class="relationship" transform="translate(19.693748577786323 26.852186143620184) rotate(402.28678839434417)"><path class="outline" fill="#A5ABB6" stroke="none" d="M 25 0.5 L 36.13259721188251 0.5 L 36.13259721188251 -0.5 L 25 -0.5 Z M 73.68337846188251 0.5 L 84.81597567376502 0.5 L 84.81597567376502 3.5 L 91.81597567376502 0 L 84.81597567376502 -3.5 L 84.81597567376502 -0.5 L 73.68337846188251 -0.5 Z"/><text text-anchor="middle" pointer-events="none" font-size="8px" fill="#000000" x="54.90798783688251" y="3" font-family="sans-serif">WRITED</text></g><g class="relationship" transform="translate(-11.23348284528957 116.23516263710357) rotate(354.74917813117054)"><path class="outline" fill="#A5ABB6" stroke="none" d="M 25 0.5 L 36.64490435914597 0.5 L 36.64490435914597 -0.5 L 25 -0.5 Z M 74.19568560914597 0.5 L 85.84058996829194 0.5 L 85.84058996829194 3.5 L 92.84058996829194 0 L 85.84058996829194 -3.5 L 85.84058996829194 -0.5 L 74.19568560914597 -0.5 Z"/><text text-anchor="middle" pointer-events="none" font-size="8px" fill="#000000" x="55.42029498414597" y="3" font-family="sans-serif">WRITED</text></g><g class="relationship" transform="translate(43.995826588882245 205.03530586131436) rotate(301.9542612941201)"><path class="outline" fill="#604A0E" stroke="none" d="M 25 0.5 L 31.739337971133416 0.5 L 31.739337971133416 -0.5 L 25 -0.5 Z M 78.62996297113341 0.5 L 85.36930094226683 0.5 L 85.36930094226683 3.5 L 92.36930094226683 0 L 85.36930094226683 -3.5 L 85.36930094226683 -0.5 L 78.62996297113341 -0.5 Z"/><text text-anchor="middle" pointer-events="none" font-size="8px" fill="#000000" x="55.184650471133416" y="3" font-family="sans-serif">DIRECTED</text></g></g><g class="layer nodes"><g class="node" transform="translate(148.61951910436954,214.34277615205204)"><circle class="outline" cx="0" cy="0" r="25" fill="#F79767" stroke="#f36924" stroke-width="2px"/><text text-anchor="middle" pointer-events="none" font-family="sans-serif" dy="1.5625" font-size="25" fill="#FFFFFF"/><text text-anchor="middle" pointer-events="none" font-family="sans-serif" dy="1.5625" font-size="25" fill="#FFFFFF"/><text text-anchor="middle" pointer-events="none" font-family="sans-serif" dy="1.5625" font-size="25" fill="#FFFFFF"/><text text-anchor="middle" pointer-events="none" x="0" y="-5" font-size="10px" fill="#FFFFFF" font-family="sans-serif"> Samuel</text><text text-anchor="middle" pointer-events="none" x="0" y="5" font-size="10px" fill="#FFFFFF" font-family="sans-serif"> L.</text><text text-anchor="middle" pointer-events="none" x="0" y="15" font-size="10px" fill="#FFFFFF" font-family="sans-serif"> Jackson</text></g><g class="node" transform="translate(106.11260263226696,105.4508746601854)"><circle class="outline" cx="0" cy="0" r="25" fill="#57C7E3" stroke="#23b3d7" stroke-width="2px"/><text text-anchor="middle" pointer-events="none" font-family="sans-serif" dy="1.5625" font-size="25" fill="#2A2C34"/><text text-anchor="middle" pointer-events="none" font-family="sans-serif" dy="1.5625" font-size="25" fill="#2A2C34"/><text text-anchor="middle" pointer-events="none" x="0" y="0" font-size="10px" fill="#2A2C34" font-family="sans-serif"> Captain</text><text text-anchor="middle" pointer-events="none" x="0" y="10" font-size="10px" fill="#2A2C34" font-family="sans-serif"> America</text></g><g class="node" transform="translate(218.57564931345462,137.37558764812152)"><circle class="outline" cx="0" cy="0" r="25" fill="#F79767" stroke="#f36924" stroke-width="2px"/><text text-anchor="middle" pointer-events="none" font-family="sans-serif" dy="1.5625" font-size="25" fill="#FFFFFF"/><text text-anchor="middle" pointer-events="none" font-family="sans-serif" dy="1.5625" font-size="25" fill="#FFFFFF"/><text text-anchor="middle" pointer-events="none" x="0" y="0" font-size="10px" fill="#FFFFFF" font-family="sans-serif"> Chris</text><text text-anchor="middle" pointer-events="none" x="0" y="10" font-size="10px" fill="#FFFFFF" font-family="sans-serif"> Evans</text></g><g class="node" transform="translate(199.3637244589641,34.13262479235961)"><circle class="outline" cx="0" cy="0" r="25" fill="#F79767" stroke="#f36924" stroke-width="2px"/><text text-anchor="middle" pointer-events="none" font-family="sans-serif" dy="1.5625" font-size="25" fill="#FFFFFF"/><text text-anchor="middle" pointer-events="none" font-family="sans-serif" dy="1.5625" font-size="25" fill="#FFFFFF"/><text text-anchor="middle" pointer-events="none" x="0" y="0" font-size="10px" fill="#FFFFFF" font-family="sans-serif"> Hugo</text><text text-anchor="middle" pointer-events="none" x="0" y="10" font-size="10px" fill="#FFFFFF" font-family="sans-serif"> Weaving</text></g><g class="node" transform="translate(105.7376956877694,-12.40914130523819)"><circle class="outline" cx="0" cy="0" r="25" fill="#F79767" stroke="#f36924" stroke-width="2px"/><text text-anchor="middle" pointer-events="none" font-family="sans-serif" dy="1.5625" font-size="25" fill="#FFFFFF"/><text text-anchor="middle" pointer-events="none" font-family="sans-serif" dy="1.5625" font-size="25" fill="#FFFFFF"/><text text-anchor="middle" pointer-events="none" x="0" y="0" font-size="10px" fill="#FFFFFF" font-family="sans-serif"> Joe</text><text text-anchor="middle" pointer-events="none" x="0" y="10" font-size="10px" fill="#FFFFFF" font-family="sans-serif"> Simon</text></g><g class="node" transform="translate(19.693748577786323,26.852186143620184)"><circle class="outline" cx="0" cy="0" r="25" fill="#F79767" stroke="#f36924" stroke-width="2px"/><text text-anchor="middle" pointer-events="none" font-family="sans-serif" dy="1.5625" font-size="25" fill="#FFFFFF"/><text text-anchor="middle" pointer-events="none" font-family="sans-serif" dy="1.5625" font-size="25" fill="#FFFFFF"/><text text-anchor="middle" pointer-events="none" x="0" y="0" font-size="10px" fill="#FFFFFF" font-family="sans-serif"> Stephen</text><text text-anchor="middle" pointer-events="none" x="0" y="10" font-size="10px" fill="#FFFFFF" font-family="sans-serif"> McFeely</text></g><g class="node" transform="translate(-11.23348284528957,116.23516263710357)"><circle class="outline" cx="0" cy="0" r="25" fill="#F79767" stroke="#f36924" stroke-width="2px"/><text text-anchor="middle" pointer-events="none" font-family="sans-serif" dy="1.5625" font-size="25" fill="#FFFFFF"/><text text-anchor="middle" pointer-events="none" x="0" y="5" font-size="10px" fill="#FFFFFF" font-family="sans-serif"> Christop…</text></g><g class="node" transform="translate(43.995826588882245,205.03530586131436)"><circle class="outline" cx="0" cy="0" r="25" fill="#F79767" stroke="#f36924" stroke-width="2px"/><text text-anchor="middle" pointer-events="none" font-family="sans-serif" dy="1.5625" font-size="25" fill="#FFFFFF"/><text text-anchor="middle" pointer-events="none" font-family="sans-serif" dy="1.5625" font-size="25" fill="#FFFFFF"/><text text-anchor="middle" pointer-events="none" x="0" y="0" font-size="10px" fill="#FFFFFF" font-family="sans-serif"> Joe</text><text text-anchor="middle" pointer-events="none" x="0" y="10" font-size="10px" fill="#FFFFFF" font-family="sans-serif"> Johnston</text></g></g></svg>