<svg xmlns="http://www.w3.org/2000/svg" width="575.2639770507812" height="571.3236083984375" viewBox="-206.3802490234375 -172.14697265625 575.2639770507812 571.3236083984375"><title>Neo4j Graph Visualization</title><desc>Created using Neo4j (http://www.neo4j.com/)</desc><g class="layer relationships"><g class="relationship" transform="translate(62.16688565145568 104.71048362492165) rotate(417.03670298517955)"><path class="outline" fill="#A5ABB6" stroke="none" d="M 25 0.5 L 45.96180885726115 0.5 L 45.96180885726115 -0.5 L 25 -0.5 Z M 91.52430885726115 0.5 L 112.4861177145223 0.5 L 112.4861177145223 3.5 L 119.4861177145223 0 L 112.4861177145223 -3.5 L 112.4861177145223 -0.5 L 91.52430885726115 -0.5 Z"/><text text-anchor="middle" pointer-events="none" font-size="8px" fill="#000000" x="68.74305885726115" y="3" font-family="sans-serif">ACTED_IN</text></g><g class="relationship" transform="translate(62.16688565145568 104.71048362492165) rotate(495.8756806263432)"><path class="outline" fill="#A5ABB6" stroke="none" d="M 25 0.5 L 41.01593394519975 0.5 L 41.01593394519975 -0.5 L 25 -0.5 Z M 86.57843394519975 0.5 L 102.5943678903995 0.5 L 102.5943678903995 3.5 L 109.5943678903995 0 L 102.5943678903995 -3.5 L 102.5943678903995 -0.5 L 86.57843394519975 -0.5 Z"/><text text-anchor="middle" pointer-events="none" font-size="8px" fill="#000000" x="63.79718394519975" y="3" transform="rotate(180 63.79718394519975 0)" font-family="sans-serif">ACTED_IN</text></g><g class="relationship" transform="translate(62.16688565145568 104.71048362492165) rotate(389.68678383049814)"><path class="outline" fill="#A5ABB6" stroke="none" d="M 24.018736134675446,-6.953439040707552 L 24.277555179777966,-5.987513214418485 A 122.92317095408796 122.92317095408796 0 0 1 31.74611460234006,-7.740870864247086 L 31.54805350355957,-8.72106054035568 A 123.92317095408796 123.92317095408796 0 0 0 24.018736134675446,-6.953439040707552 Z M 77.03083067205505,-9.394302459282613 L 76.86186777670818,-8.40868004679595 A 122.92317095408796 122.92317095408796 0 0 1 84.37905062899128,-6.87714328200884 L 83.68870142544363,-3.9576539470118584 L 91.30625061124218,-5.752910029563806 L 85.29951623372149,-10.769795728671482 L 84.60916703017384,-7.850306393674501 A 123.92317095408796 123.92317095408796 0 0 0 77.03083067205505,-9.394302459282613"/><text text-anchor="middle" pointer-events="none" font-size="8px" fill="#000000" x="54.265687362028274" y="-7.662499721816488" font-family="sans-serif">ACTED_IN</text></g><g class="relationship" transform="translate(62.16688565145568 104.71048362492165) rotate(282.63322656335725)"><path class="outline" fill="#A5ABB6" stroke="none" d="M 25 0.5 L 38.53836599114787 0.5 L 38.53836599114787 -0.5 L 25 -0.5 Z M 84.10086599114787 0.5 L 97.63923198229574 0.5 L 97.63923198229574 3.5 L 104.63923198229574 0 L 97.63923198229574 -3.5 L 97.63923198229574 -0.5 L 84.10086599114787 -0.5 Z"/><text text-anchor="middle" pointer-events="none" font-size="8px" fill="#000000" x="61.31961599114787" y="3" font-family="sans-serif">ACTED_IN</text></g><g class="relationship" transform="translate(62.16688565145568 104.71048362492165) rotate(455.17331396746073)"><path class="outline" fill="#A5ABB6" stroke="none" d="M 25 0.5 L 41.846525865375156 0.5 L 41.846525865375156 -0.5 L 25 -0.5 Z M 87.40902586537516 0.5 L 104.25555173075031 0.5 L 104.25555173075031 3.5 L 111.25555173075031 0 L 104.25555173075031 -3.5 L 104.25555173075031 -0.5 L 87.40902586537516 -0.5 Z"/><text text-anchor="middle" pointer-events="none" font-size="8px" fill="#000000" x="64.62777586537516" y="3" transform="rotate(180 64.62777586537516 0)" font-family="sans-serif">ACTED_IN</text></g><g class="relationship" transform="translate(62.16688565145568 104.71048362492165) rotate(207.38057791372228)"><path class="outline" fill="#A5ABB6" stroke="none" d="M 25 0.5 L 41.396746449533154 0.5 L 41.396746449533154 -0.5 L 25 -0.5 Z M 86.95924644953315 0.5 L 103.35599289906631 0.5 L 103.35599289906631 3.5 L 110.35599289906631 0 L 103.35599289906631 -3.5 L 103.35599289906631 -0.5 L 86.95924644953315 -0.5 Z"/><text text-anchor="middle" pointer-events="none" font-size="8px" fill="#000000" x="64.17799644953315" y="3" transform="rotate(180 64.17799644953315 0)" font-family="sans-serif">ACTED_IN</text></g><g class="relationship" transform="translate(62.16688565145568 104.71048362492165) rotate(254.67643892273782)"><path class="outline" fill="#A5ABB6" stroke="none" d="M 25 0.5 L 39.67412341003758 0.5 L 39.67412341003758 -0.5 L 25 -0.5 Z M 85.23662341003758 0.5 L 99.91074682007516 0.5 L 99.91074682007516 3.5 L 106.91074682007516 0 L 99.91074682007516 -3.5 L 99.91074682007516 -0.5 L 85.23662341003758 -0.5 Z"/><text text-anchor="middle" pointer-events="none" font-size="8px" fill="#000000" x="62.45537341003758" y="3" transform="rotate(180 62.45537341003758 0)" font-family="sans-serif">ACTED_IN</text></g><g class="relationship" transform="translate(62.16688565145568 104.71048362492165) rotate(360.69245542273137)"><path class="outline" fill="#A5ABB6" stroke="none" d="M 25 0.5 L 46.20578550308444 0.5 L 46.20578550308444 -0.5 L 25 -0.5 Z M 91.76828550308444 0.5 L 112.97407100616888 0.5 L 112.97407100616888 3.5 L 119.97407100616888 0 L 112.97407100616888 -3.5 L 112.97407100616888 -0.5 L 91.76828550308444 -0.5 Z"/><text text-anchor="middle" pointer-events="none" font-size="8px" fill="#000000" x="68.98703550308444" y="3" font-family="sans-serif">ACTED_IN</text></g><g class="relationship" transform="translate(62.16688565145568 104.71048362492165) rotate(538.2941354776265)"><path class="outline" fill="#A5ABB6" stroke="none" d="M 25 0.5 L 41.30657651738055 0.5 L 41.30657651738055 -0.5 L 25 -0.5 Z M 86.86907651738055 0.5 L 103.1756530347611 0.5 L 103.1756530347611 3.5 L 110.1756530347611 0 L 103.1756530347611 -3.5 L 103.1756530347611 -0.5 L 86.86907651738055 -0.5 Z"/><text text-anchor="middle" pointer-events="none" font-size="8px" fill="#000000" x="64.08782651738055" y="3" transform="rotate(180 64.08782651738055 0)" font-family="sans-serif">ACTED_IN</text></g><g class="relationship" transform="translate(62.16688565145568 104.71048362492165) rotate(325.4930251830125)"><path class="outline" fill="#A5ABB6" stroke="none" d="M 25 0.5 L 43.61253279569803 0.5 L 43.61253279569803 -0.5 L 25 -0.5 Z M 89.17503279569803 0.5 L 107.78756559139606 0.5 L 107.78756559139606 3.5 L 114.78756559139606 0 L 107.78756559139606 -3.5 L 107.78756559139606 -0.5 L 89.17503279569803 -0.5 Z"/><text text-anchor="middle" pointer-events="none" font-size="8px" fill="#000000" x="66.39378279569803" y="3" font-family="sans-serif">ACTED_IN</text></g><g class="relationship" transform="translate(62.16688565145568 104.71048362492165) rotate(389.68678383049814)"><path class="outline" fill="#A5ABB6" stroke="none" d="M 24.018736134675446,6.953439040707552 L 24.277555179777966,5.987513214418485 A 122.92317095408796 122.92317095408796 0 0 0 31.098199807827225,7.608135405650472 L 30.89486781675292,8.587245257202255 A 123.92317095408796 123.92317095408796 0 0 1 24.018736134675446,6.953439040707552 Z M 77.6876908259442,9.27987864319823 L 77.51342738713294,8.2951795755163 A 122.92317095408796 122.92317095408796 0 0 0 84.37905062899128,6.87714328200884 L 83.68870142544363,3.9576539470118584 L 91.30625061124218,5.752910029563806 L 85.29951623372149,10.769795728671482 L 84.60916703017384,7.850306393674501 A 123.92317095408796 123.92317095408796 0 0 1 77.6876908259442,9.27987864319823"/><text text-anchor="middle" pointer-events="none" font-size="8px" fill="#000000" x="54.26568736202831" y="13.662499721816488" font-family="sans-serif">DIRECTED</text></g><g class="relationship" transform="translate(237.13398523822107 315.7638838764777) rotate(222.99271693825597)"><path class="outline" fill="#A5ABB6" stroke="none" d="M 25 0.5 L 38.91922122131486 0.5 L 38.91922122131486 -0.5 L 25 -0.5 Z M 85.80984622131486 0.5 L 99.72906744262971 0.5 L 99.72906744262971 3.5 L 106.72906744262971 0 L 99.72906744262971 -3.5 L 99.72906744262971 -0.5 L 85.80984622131486 -0.5 Z"/><text text-anchor="middle" pointer-events="none" font-size="8px" fill="#000000" x="62.36453372131486" y="3" transform="rotate(180 62.36453372131486 0)" font-family="sans-serif">DIRECTED</text></g><g class="relationship" transform="translate(339.88372103174936 117.9561183405172) rotate(184.9482386978416)"><path class="outline" fill="#A5ABB6" stroke="none" d="M 25 0.5 L 39.679672858075776 0.5 L 39.679672858075776 -0.5 L 25 -0.5 Z M 86.57029785807578 0.5 L 101.24997071615155 0.5 L 101.24997071615155 3.5 L 108.24997071615155 0 L 101.24997071615155 -3.5 L 101.24997071615155 -0.5 L 86.57029785807578 -0.5 Z"/><text text-anchor="middle" pointer-events="none" font-size="8px" fill="#000000" x="63.124985358075776" y="3" transform="rotate(180 63.124985358075776 0)" font-family="sans-serif">DIRECTED</text></g><g class="relationship" transform="translate(288.367313215471 -49.42436655287043) rotate(505.9756033768443)"><path class="outline" fill="#A5ABB6" stroke="none" d="M 25 0.5 L 40.02353077096119 0.5 L 40.02353077096119 -0.5 L 25 -0.5 Z M 86.91415577096119 0.5 L 101.93768654192237 0.5 L 101.93768654192237 3.5 L 108.93768654192237 0 L 101.93768654192237 -3.5 L 101.93768654192237 -0.5 L 86.91415577096119 -0.5 Z"/><text text-anchor="middle" pointer-events="none" font-size="8px" fill="#000000" x="63.46884327096119" y="3" transform="rotate(180 63.46884327096119 0)" font-family="sans-serif">DIRECTED</text></g><g class="relationship" transform="translate(-177.38024717776116 45.83147155845983) rotate(358.38217382892856)"><path class="outline" fill="#A5ABB6" stroke="none" d="M 25 0.5 L 32.75593137441719 0.5 L 32.75593137441719 -0.5 L 25 -0.5 Z M 79.64655637441719 0.5 L 87.40248774883437 0.5 L 87.40248774883437 3.5 L 94.40248774883437 0 L 87.40248774883437 -3.5 L 87.40248774883437 -0.5 L 79.64655637441719 -0.5 Z"/><text text-anchor="middle" pointer-events="none" font-size="8px" fill="#000000" x="56.20124387441719" y="3" font-family="sans-serif">DIRECTED</text></g><g class="relationship" transform="translate(-177.38024717776116 45.83147155845983) rotate(391.06215430694726)"><path class="outline" fill="#A5ABB6" stroke="none" d="M 25 0.5 L 34.01102741908296 0.5 L 34.01102741908296 -0.5 L 25 -0.5 Z M 80.90165241908295 0.5 L 89.91267983816591 0.5 L 89.91267983816591 3.5 L 96.91267983816591 0 L 89.91267983816591 -3.5 L 89.91267983816591 -0.5 L 80.90165241908295 -0.5 Z"/><text text-anchor="middle" pointer-events="none" font-size="8px" fill="#000000" x="57.45633991908296" y="3" font-family="sans-serif">DIRECTED</text></g><g class="relationship" transform="translate(96.51363509802964 -143.1469663219737) rotate(479.84207948050414)"><path class="outline" fill="#A5ABB6" stroke="none" d="M 25 0.5 L 42.593685075155946 0.5 L 42.593685075155946 -0.5 L 25 -0.5 Z M 89.48431007515595 0.5 L 107.07799515031189 0.5 L 107.07799515031189 3.5 L 114.07799515031189 0 L 107.07799515031189 -3.5 L 107.07799515031189 -0.5 L 89.48431007515595 -0.5 Z"/><text text-anchor="middle" pointer-events="none" font-size="8px" fill="#000000" x="66.03899757515595" y="3" transform="rotate(180 66.03899757515595 0)" font-family="sans-serif">DIRECTED</text></g><g class="relationship" transform="translate(21.43140547299535 -140.18589944185172) rotate(419.73467932207797)"><path class="outline" fill="#A5ABB6" stroke="none" d="M 25 0.5 L 41.594458016622966 0.5 L 41.594458016622966 -0.5 L 25 -0.5 Z M 88.48508301662297 0.5 L 105.07954103324593 0.5 L 105.07954103324593 3.5 L 112.07954103324593 0 L 105.07954103324593 -3.5 L 105.07954103324593 -0.5 L 88.48508301662297 -0.5 Z"/><text text-anchor="middle" pointer-events="none" font-size="8px" fill="#000000" x="65.03977051662297" y="3" font-family="sans-serif">DIRECTED</text></g><g class="relationship" transform="translate(-125.39985364726527 286.3825789501437) rotate(315.95602046842777)"><path class="outline" fill="#A5ABB6" stroke="none" d="M 25 0.5 L 36.31981185533118 0.5 L 36.31981185533118 -0.5 L 25 -0.5 Z M 83.21043685533118 0.5 L 94.53024871066236 0.5 L 94.53024871066236 3.5 L 101.53024871066236 0 L 94.53024871066236 -3.5 L 94.53024871066236 -0.5 L 83.21043685533118 -0.5 Z"/><text text-anchor="middle" pointer-events="none" font-size="8px" fill="#000000" x="59.76512435533118" y="3" font-family="sans-serif">DIRECTED</text></g><g class="relationship" transform="translate(55.415301112485494 370.17666272531375) rotate(267.55785928922006)"><path class="outline" fill="#A5ABB6" stroke="none" d="M 25 0.5 L 37.9965021552361 0.5 L 37.9965021552361 -0.5 L 25 -0.5 Z M 84.8871271552361 0.5 L 97.8836293104722 0.5 L 97.8836293104722 3.5 L 104.8836293104722 0 L 97.8836293104722 -3.5 L 97.8836293104722 -0.5 L 84.8871271552361 -0.5 Z"/><text text-anchor="middle" pointer-events="none" font-size="8px" fill="#000000" x="61.4418146552361" y="3" transform="rotate(180 61.4418146552361 0)" font-family="sans-serif">DIRECTED</text></g></g><g class="layer nodes"><g class="node" transform="translate(62.16688565145568,104.71048362492165)"><circle class="outline" cx="0" cy="0" r="25" fill="#F79767" stroke="#f36924" stroke-width="2px"/><text text-anchor="middle" pointer-events="none" font-family="sans-serif" dy="1.5625" font-size="25" fill="#FFFFFF"/><text text-anchor="middle" pointer-events="none" font-family="sans-serif" dy="1.5625" font-size="25" fill="#FFFFFF"/><text text-anchor="middle" pointer-events="none" x="0" y="0" font-size="10px" fill="#FFFFFF" font-family="sans-serif"> Tom</text><text text-anchor="middle" pointer-events="none" x="0" y="10" font-size="10px" fill="#FFFFFF" font-family="sans-serif"> Hanks</text></g><g class="node" transform="translate(162.6245888313253,161.9798388392767)"><circle class="outline" cx="0" cy="0" r="25" fill="#57C7E3" stroke="#23b3d7" stroke-width="2px"/><text text-anchor="middle" pointer-events="none" font-family="sans-serif" dy="1.5625" font-size="25" fill="#2A2C34"/><text text-anchor="middle" pointer-events="none" font-family="sans-serif" dy="1.5625" font-size="25" fill="#2A2C34"/><text text-anchor="middle" pointer-events="none" font-family="sans-serif" dy="1.5625" font-size="25" fill="#2A2C34"/><text text-anchor="middle" pointer-events="none" x="0" y="-5" font-size="10px" fill="#2A2C34" font-family="sans-serif"> That</text><text text-anchor="middle" pointer-events="none" x="0" y="5" font-size="10px" fill="#2A2C34" font-family="sans-serif"> Thing You</text><text text-anchor="middle" pointer-events="none" x="0" y="15" font-size="10px" fill="#2A2C34" font-family="sans-serif"> Do</text></g><g class="node" transform="translate(140.78202518918,225.93712280822544)"><circle class="outline" cx="0" cy="0" r="25" fill="#57C7E3" stroke="#23b3d7" stroke-width="2px"/><text text-anchor="middle" pointer-events="none" font-family="sans-serif" dy="1.5625" font-size="25" fill="#2A2C34"/><text text-anchor="middle" pointer-events="none" font-family="sans-serif" dy="1.5625" font-size="25" fill="#2A2C34"/><text text-anchor="middle" pointer-events="none" font-family="sans-serif" dy="1.5625" font-size="25" fill="#2A2C34"/><text text-anchor="middle" pointer-events="none" font-family="sans-serif" dy="1.5625" font-size="25" fill="#2A2C34"/><text text-anchor="middle" pointer-events="none" x="0" y="-10" font-size="10px" fill="#2A2C34" font-family="sans-serif"> A</text><text text-anchor="middle" pointer-events="none" x="0" y="0" font-size="10px" fill="#2A2C34" font-family="sans-serif"> League</text><text text-anchor="middle" pointer-events="none" x="0" y="10" font-size="10px" fill="#2A2C34" font-family="sans-serif"> of Their</text><text text-anchor="middle" pointer-events="none" x="0" y="20" font-size="10px" fill="#2A2C34" font-family="sans-serif"> Own</text></g><g class="node" transform="translate(237.13398523822107,315.7638838764777)"><circle class="outline" cx="0" cy="0" r="25" fill="#F79767" stroke="#f36924" stroke-width="2px"/><text text-anchor="middle" pointer-events="none" font-family="sans-serif" dy="1.5625" font-size="25" fill="#FFFFFF"/><text text-anchor="middle" pointer-events="none" font-family="sans-serif" dy="1.5625" font-size="25" fill="#FFFFFF"/><text text-anchor="middle" pointer-events="none" x="0" y="0" font-size="10px" fill="#FFFFFF" font-family="sans-serif"> Penny</text><text text-anchor="middle" pointer-events="none" x="0" y="10" font-size="10px" fill="#FFFFFF" font-family="sans-serif"> Marshall</text></g><g class="node" transform="translate(207.13036915748413,106.46254352661511)"><circle class="outline" cx="0" cy="0" r="25" fill="#57C7E3" stroke="#23b3d7" stroke-width="2px"/><text text-anchor="middle" pointer-events="none" font-family="sans-serif" dy="1.5625" font-size="25" fill="#2A2C34"/><text text-anchor="middle" pointer-events="none" x="0" y="5" font-size="10px" fill="#2A2C34" font-family="sans-serif"> Sleepless</text></g><g class="node" transform="translate(339.88372103174936,117.9561183405172)"><circle class="outline" cx="0" cy="0" r="25" fill="#F79767" stroke="#f36924" stroke-width="2px"/><text text-anchor="middle" pointer-events="none" font-family="sans-serif" dy="1.5625" font-size="25" fill="#FFFFFF"/><text text-anchor="middle" pointer-events="none" font-family="sans-serif" dy="1.5625" font-size="25" fill="#FFFFFF"/><text text-anchor="middle" pointer-events="none" x="0" y="0" font-size="10px" fill="#FFFFFF" font-family="sans-serif"> Nora</text><text text-anchor="middle" pointer-events="none" x="0" y="10" font-size="10px" fill="#FFFFFF" font-family="sans-serif"> Ephron</text></g><g class="node" transform="translate(177.35984000536803,25.51991119873998)"><circle class="outline" cx="0" cy="0" r="25" fill="#57C7E3" stroke="#23b3d7" stroke-width="2px"/><text text-anchor="middle" pointer-events="none" font-family="sans-serif" dy="1.5625" font-size="25" fill="#2A2C34"/><text text-anchor="middle" pointer-events="none" font-family="sans-serif" dy="1.5625" font-size="25" fill="#2A2C34"/><text text-anchor="middle" pointer-events="none" font-family="sans-serif" dy="1.5625" font-size="25" fill="#2A2C34"/><text text-anchor="middle" pointer-events="none" x="0" y="-5" font-size="10px" fill="#2A2C34" font-family="sans-serif"> Charlie</text><text text-anchor="middle" pointer-events="none" x="0" y="5" font-size="10px" fill="#2A2C34" font-family="sans-serif"> Wilson's</text><text text-anchor="middle" pointer-events="none" x="0" y="15" font-size="10px" fill="#2A2C34" font-family="sans-serif"> War</text></g><g class="node" transform="translate(288.367313215471,-49.42436655287043)"><circle class="outline" cx="0" cy="0" r="25" fill="#F79767" stroke="#f36924" stroke-width="2px"/><text text-anchor="middle" pointer-events="none" font-family="sans-serif" dy="1.5625" font-size="25" fill="#FFFFFF"/><text text-anchor="middle" pointer-events="none" font-family="sans-serif" dy="1.5625" font-size="25" fill="#FFFFFF"/><text text-anchor="middle" pointer-events="none" x="0" y="0" font-size="10px" fill="#FFFFFF" font-family="sans-serif"> Mike</text><text text-anchor="middle" pointer-events="none" x="0" y="10" font-size="10px" fill="#FFFFFF" font-family="sans-serif"> Nichols</text></g><g class="node" transform="translate(-58.025355704777326,42.46042393453165)"><circle class="outline" cx="0" cy="0" r="25" fill="#57C7E3" stroke="#23b3d7" stroke-width="2px"/><text text-anchor="middle" pointer-events="none" font-family="sans-serif" dy="1.5625" font-size="25" fill="#2A2C34"/><text text-anchor="middle" pointer-events="none" font-family="sans-serif" dy="1.5625" font-size="25" fill="#2A2C34"/><text text-anchor="middle" pointer-events="none" x="0" y="0" font-size="10px" fill="#2A2C34" font-family="sans-serif"> Cast</text><text text-anchor="middle" pointer-events="none" x="0" y="10" font-size="10px" fill="#2A2C34" font-family="sans-serif"> Away</text></g><g class="node" transform="translate(-177.38024717776116,45.83147155845983)"><circle class="outline" cx="0" cy="0" r="25" fill="#F79767" stroke="#f36924" stroke-width="2px"/><text text-anchor="middle" pointer-events="none" font-family="sans-serif" dy="1.5625" font-size="25" fill="#FFFFFF"/><text text-anchor="middle" pointer-events="none" font-family="sans-serif" dy="1.5625" font-size="25" fill="#FFFFFF"/><text text-anchor="middle" pointer-events="none" x="0" y="0" font-size="10px" fill="#FFFFFF" font-family="sans-serif"> Robert</text><text text-anchor="middle" pointer-events="none" x="0" y="10" font-size="10px" fill="#FFFFFF" font-family="sans-serif"> Zemeckis</text></g><g class="node" transform="translate(27.30687593829082,-22.510681475182764)"><circle class="outline" cx="0" cy="0" r="25" fill="#57C7E3" stroke="#23b3d7" stroke-width="2px"/><text text-anchor="middle" pointer-events="none" font-family="sans-serif" dy="1.5625" font-size="25" fill="#2A2C34"/><text text-anchor="middle" pointer-events="none" font-family="sans-serif" dy="1.5625" font-size="25" fill="#2A2C34"/><text text-anchor="middle" pointer-events="none" font-family="sans-serif" dy="1.5625" font-size="25" fill="#2A2C34"/><text text-anchor="middle" pointer-events="none" x="0" y="-5" font-size="10px" fill="#2A2C34" font-family="sans-serif"> The</text><text text-anchor="middle" pointer-events="none" x="0" y="5" font-size="10px" fill="#2A2C34" font-family="sans-serif"> Green</text><text text-anchor="middle" pointer-events="none" x="0" y="15" font-size="10px" fill="#2A2C34" font-family="sans-serif"> Mile</text></g><g class="node" transform="translate(96.51363509802964,-143.1469663219737)"><circle class="outline" cx="0" cy="0" r="25" fill="#F79767" stroke="#f36924" stroke-width="2px"/><text text-anchor="middle" pointer-events="none" font-family="sans-serif" dy="1.5625" font-size="25" fill="#FFFFFF"/><text text-anchor="middle" pointer-events="none" font-family="sans-serif" dy="1.5625" font-size="25" fill="#FFFFFF"/><text text-anchor="middle" pointer-events="none" x="0" y="0" font-size="10px" fill="#FFFFFF" font-family="sans-serif"> Frank</text><text text-anchor="middle" pointer-events="none" x="0" y="10" font-size="10px" fill="#FFFFFF" font-family="sans-serif"> Darabont</text></g><g class="node" transform="translate(90.52017207069187,-21.7901947060195)"><circle class="outline" cx="0" cy="0" r="25" fill="#57C7E3" stroke="#23b3d7" stroke-width="2px"/><text text-anchor="middle" pointer-events="none" font-family="sans-serif" dy="1.5625" font-size="25" fill="#2A2C34"/><text text-anchor="middle" pointer-events="none" font-family="sans-serif" dy="1.5625" font-size="25" fill="#2A2C34"/><text text-anchor="middle" pointer-events="none" font-family="sans-serif" dy="1.5625" font-size="25" fill="#2A2C34"/><text text-anchor="middle" pointer-events="none" x="0" y="-5" font-size="10px" fill="#2A2C34" font-family="sans-serif"> The Da</text><text text-anchor="middle" pointer-events="none" x="0" y="5" font-size="10px" fill="#2A2C34" font-family="sans-serif"> Vinci</text><text text-anchor="middle" pointer-events="none" x="0" y="15" font-size="10px" fill="#2A2C34" font-family="sans-serif"> Code</text></g><g class="node" transform="translate(21.43140547299535,-140.18589944185172)"><circle class="outline" cx="0" cy="0" r="25" fill="#F79767" stroke="#f36924" stroke-width="2px"/><text text-anchor="middle" pointer-events="none" font-family="sans-serif" dy="1.5625" font-size="25" fill="#FFFFFF"/><text text-anchor="middle" pointer-events="none" font-family="sans-serif" dy="1.5625" font-size="25" fill="#FFFFFF"/><text text-anchor="middle" pointer-events="none" x="0" y="0" font-size="10px" fill="#FFFFFF" font-family="sans-serif"> Ron</text><text text-anchor="middle" pointer-events="none" x="0" y="10" font-size="10px" fill="#FFFFFF" font-family="sans-serif"> Howard</text></g><g class="node" transform="translate(-72.94886001953444,108.7344673657479)"><circle class="outline" cx="0" cy="0" r="25" fill="#57C7E3" stroke="#23b3d7" stroke-width="2px"/><text text-anchor="middle" pointer-events="none" font-family="sans-serif" dy="1.5625" font-size="25" fill="#2A2C34"/><text text-anchor="middle" pointer-events="none" font-family="sans-serif" dy="1.5625" font-size="25" fill="#2A2C34"/><text text-anchor="middle" pointer-events="none" font-family="sans-serif" dy="1.5625" font-size="25" fill="#2A2C34"/><text text-anchor="middle" pointer-events="none" x="0" y="-5" font-size="10px" fill="#2A2C34" font-family="sans-serif"> The</text><text text-anchor="middle" pointer-events="none" x="0" y="5" font-size="10px" fill="#2A2C34" font-family="sans-serif"> Polar</text><text text-anchor="middle" pointer-events="none" x="0" y="15" font-size="10px" fill="#2A2C34" font-family="sans-serif"> Express</text></g><g class="node" transform="translate(-34.44910395205348,198.4174439894048)"><circle class="outline" cx="0" cy="0" r="25" fill="#57C7E3" stroke="#23b3d7" stroke-width="2px"/><text text-anchor="middle" pointer-events="none" font-family="sans-serif" dy="1.5625" font-size="25" fill="#2A2C34"/><text text-anchor="middle" pointer-events="none" font-family="sans-serif" dy="1.5625" font-size="25" fill="#2A2C34"/><text text-anchor="middle" pointer-events="none" font-family="sans-serif" dy="1.5625" font-size="25" fill="#2A2C34"/><text text-anchor="middle" pointer-events="none" font-family="sans-serif" dy="1.5625" font-size="25" fill="#2A2C34"/><text text-anchor="middle" pointer-events="none" x="0" y="-10" font-size="10px" fill="#2A2C34" font-family="sans-serif"> Joe</text><text text-anchor="middle" pointer-events="none" x="0" y="0" font-size="10px" fill="#2A2C34" font-family="sans-serif"> Versus</text><text text-anchor="middle" pointer-events="none" x="0" y="10" font-size="10px" fill="#2A2C34" font-family="sans-serif"> the</text><text text-anchor="middle" pointer-events="none" x="0" y="20" font-size="10px" fill="#2A2C34" font-family="sans-serif"> Volc…</text></g><g class="node" transform="translate(-125.39985364726527,286.3825789501437)"><circle class="outline" cx="0" cy="0" r="25" fill="#F79767" stroke="#f36924" stroke-width="2px"/><text text-anchor="middle" pointer-events="none" font-family="sans-serif" dy="1.5625" font-size="25" fill="#FFFFFF"/><text text-anchor="middle" pointer-events="none" font-family="sans-serif" dy="1.5625" font-size="25" fill="#FFFFFF"/><text text-anchor="middle" pointer-events="none" font-family="sans-serif" dy="1.5625" font-size="25" fill="#FFFFFF"/><text text-anchor="middle" pointer-events="none" x="0" y="-5" font-size="10px" fill="#FFFFFF" font-family="sans-serif"> John</text><text text-anchor="middle" pointer-events="none" x="0" y="5" font-size="10px" fill="#FFFFFF" font-family="sans-serif"> Patrick</text><text text-anchor="middle" pointer-events="none" x="0" y="15" font-size="10px" fill="#FFFFFF" font-family="sans-serif"> Stanley</text></g><g class="node" transform="translate(49.88089585112795,240.41099884898932)"><circle class="outline" cx="0" cy="0" r="25" fill="#57C7E3" stroke="#23b3d7" stroke-width="2px"/><text text-anchor="middle" pointer-events="none" font-family="sans-serif" dy="1.5625" font-size="25" fill="#2A2C34"/><text text-anchor="middle" pointer-events="none" font-family="sans-serif" dy="1.5625" font-size="25" fill="#2A2C34"/><text text-anchor="middle" pointer-events="none" x="0" y="0" font-size="10px" fill="#2A2C34" font-family="sans-serif"> Cloud</text><text text-anchor="middle" pointer-events="none" x="0" y="10" font-size="10px" fill="#2A2C34" font-family="sans-serif"> Atlas</text></g><g class="node" transform="translate(55.415301112485494,370.17666272531375)"><circle class="outline" cx="0" cy="0" r="25" fill="#F79767" stroke="#f36924" stroke-width="2px"/><text text-anchor="middle" pointer-events="none" font-family="sans-serif" dy="1.5625" font-size="25" fill="#FFFFFF"/><text text-anchor="middle" pointer-events="none" font-family="sans-serif" dy="1.5625" font-size="25" fill="#FFFFFF"/><text text-anchor="middle" pointer-events="none" x="0" y="0" font-size="10px" fill="#FFFFFF" font-family="sans-serif"> Tom</text><text text-anchor="middle" pointer-events="none" x="0" y="10" font-size="10px" fill="#FFFFFF" font-family="sans-serif"> Tykwer</text></g></g></svg>