<svg xmlns="http://www.w3.org/2000/svg" width="624.863037109375" height="630.5499267578125" viewBox="-217.86480712890625 -233.64215087890625 624.863037109375 630.5499267578125"><title>Neo4j Graph Visualization</title><desc>Created using Neo4j (http://www.neo4j.com/)</desc><g class="layer relationships"><g class="relationship" transform="translate(-53.95188306790592 135.97589941085647) rotate(334.7577468065356)"><path class="outline" fill="#A5ABB6" stroke="none" d="M 25 0.5 L 61.25664576446951 0.5 L 61.25664576446951 -0.5 L 25 -0.5 Z M 95.70195826446951 0.5 L 131.95860402893902 0.5 L 131.95860402893902 3.5 L 138.95860402893902 0 L 131.95860402893902 -3.5 L 131.95860402893902 -0.5 L 95.70195826446951 -0.5 Z"/><text text-anchor="middle" pointer-events="none" font-size="8px" fill="#000000" x="78.47930201446951" y="3" font-family="sans-serif">ORIGIN</text></g><g class="relationship" transform="translate(-53.95188306790592 135.97589941085647) rotate(199.45975369693673)"><path class="outline" fill="#A5ABB6" stroke="none" d="M 25 0.5 L 38.44956995405579 0.5 L 38.44956995405579 -0.5 L 25 -0.5 Z M 97.63706995405579 0.5 L 111.08663990811158 0.5 L 111.08663990811158 3.5 L 118.08663990811158 0 L 111.08663990811158 -3.5 L 111.08663990811158 -0.5 L 97.63706995405579 -0.5 Z"/><text text-anchor="middle" pointer-events="none" font-size="8px" fill="#000000" x="68.04331995405579" y="3" transform="rotate(180 68.04331995405579 0)" font-family="sans-serif">DESTINATION</text></g><g class="relationship" transform="translate(267.98479042087024 135.6239080832176) rotate(201.83382174480784)"><path class="outline" fill="#A5ABB6" stroke="none" d="M 25 0.5 L 72.8033007197145 0.5 L 72.8033007197145 -0.5 L 25 -0.5 Z M 107.2486132197145 0.5 L 155.051913939429 0.5 L 155.051913939429 3.5 L 162.051913939429 0 L 155.051913939429 -3.5 L 155.051913939429 -0.5 L 107.2486132197145 -0.5 Z"/><text text-anchor="middle" pointer-events="none" font-size="8px" fill="#000000" x="90.0259569697145" y="3" transform="rotate(180 90.0259569697145 0)" font-family="sans-serif">ORIGIN</text></g><g class="relationship" transform="translate(267.98479042087024 135.6239080832176) rotate(383.2526639807081)"><path class="outline" fill="#A5ABB6" stroke="none" d="M 25 0.5 L 25.474769975295985 0.5 L 25.474769975295985 -0.5 L 25 -0.5 Z M 68.81070747529598 0.5 L 69.28547745059197 0.5 L 69.28547745059197 3.5 L 76.28547745059197 0 L 69.28547745059197 -3.5 L 69.28547745059197 -0.5 L 68.81070747529598 -0.5 Z"/><text text-anchor="middle" pointer-events="none" font-size="8px" fill="#000000" x="47.142738725295985" y="3" font-family="sans-serif">DESTIN…</text></g><g class="relationship" transform="translate(241.04752549062664 -8.234696235153697) rotate(513.1411657259735)"><path class="outline" fill="#A5ABB6" stroke="none" d="M 25 0.5 L 61.495185443473815 0.5 L 61.495185443473815 -0.5 L 25 -0.5 Z M 95.94049794347382 0.5 L 132.43568338694763 0.5 L 132.43568338694763 3.5 L 139.43568338694763 0 L 132.43568338694763 -3.5 L 132.43568338694763 -0.5 L 95.94049794347382 -0.5 Z"/><text text-anchor="middle" pointer-events="none" font-size="8px" fill="#000000" x="78.71784169347382" y="3" transform="rotate(180 78.71784169347382 0)" font-family="sans-serif">ORIGIN</text></g><g class="relationship" transform="translate(241.04752549062664 -8.234696235153697) rotate(336.8281818806456)"><path class="outline" fill="#A5ABB6" stroke="none" d="M 25 0.5 L 41.390295713501146 0.5 L 41.390295713501146 -0.5 L 25 -0.5 Z M 100.57779571350115 0.5 L 116.96809142700229 0.5 L 116.96809142700229 3.5 L 123.96809142700229 0 L 116.96809142700229 -3.5 L 116.96809142700229 -0.5 L 100.57779571350115 -0.5 Z"/><text text-anchor="middle" pointer-events="none" font-size="8px" fill="#000000" x="70.98404571350115" y="3" font-family="sans-serif">DESTINATION</text></g><g class="relationship" transform="translate(-34.1864409052132 65.60214457801536) rotate(360.2024557662321)"><path class="outline" fill="#A5ABB6" stroke="none" d="M 25 0.5 L 43.54635291457228 0.5 L 43.54635291457228 -0.5 L 25 -0.5 Z M 77.99166541457228 0.5 L 96.53801832914456 0.5 L 96.53801832914456 3.5 L 103.53801832914456 0 L 96.53801832914456 -3.5 L 96.53801832914456 -0.5 L 77.99166541457228 -0.5 Z"/><text text-anchor="middle" pointer-events="none" font-size="8px" fill="#000000" x="60.76900916457228" y="3" font-family="sans-serif">ORIGIN</text></g><g class="relationship" transform="translate(-34.1864409052132 65.60214457801536) rotate(531.6492012864945)"><path class="outline" fill="#A5ABB6" stroke="none" d="M 25 0.5 L 45.074214060195814 0.5 L 45.074214060195814 -0.5 L 25 -0.5 Z M 104.26171406019581 0.5 L 124.33592812039163 0.5 L 124.33592812039163 3.5 L 131.33592812039163 0 L 124.33592812039163 -3.5 L 124.33592812039163 -0.5 L 104.26171406019581 -0.5 Z"/><text text-anchor="middle" pointer-events="none" font-size="8px" fill="#000000" x="74.66796406019581" y="3" transform="rotate(180 74.66796406019581 0)" font-family="sans-serif">DESTINATION</text></g><g class="relationship" transform="translate(170.73218974787864 213.07191725344308) rotate(242.54603028724608)"><path class="outline" fill="#A5ABB6" stroke="none" d="M 25 0.5 L 62.11408359554038 0.5 L 62.11408359554038 -0.5 L 25 -0.5 Z M 96.55939609554038 0.5 L 133.67347969108076 0.5 L 133.67347969108076 3.5 L 140.67347969108076 0 L 133.67347969108076 -3.5 L 133.67347969108076 -0.5 L 96.55939609554038 -0.5 Z"/><text text-anchor="middle" pointer-events="none" font-size="8px" fill="#000000" x="79.33673984554038" y="3" transform="rotate(180 79.33673984554038 0)" font-family="sans-serif">ORIGIN</text></g><g class="relationship" transform="translate(170.73218974787864 213.07191725344308) rotate(442.4022727043087)"><path class="outline" fill="#A5ABB6" stroke="none" d="M 25 0.5 L 35.610150872698725 0.5 L 35.610150872698725 -0.5 L 25 -0.5 Z M 94.79765087269872 0.5 L 105.40780174539745 0.5 L 105.40780174539745 3.5 L 112.40780174539745 0 L 105.40780174539745 -3.5 L 105.40780174539745 -0.5 L 94.79765087269872 -0.5 Z"/><text text-anchor="middle" pointer-events="none" font-size="8px" fill="#000000" x="65.20390087269872" y="3" font-family="sans-serif">DESTINATION</text></g><g class="relationship" transform="translate(110.5307099556136 -109.81802517517318) rotate(455.2562514233703)"><path class="outline" fill="#A5ABB6" stroke="none" d="M 25 0.5 L 67.5858667706183 0.5 L 67.5858667706183 -0.5 L 25 -0.5 Z M 102.0311792706183 0.5 L 144.6170460412366 0.5 L 144.6170460412366 3.5 L 151.6170460412366 0 L 144.6170460412366 -3.5 L 144.6170460412366 -0.5 L 102.0311792706183 -0.5 Z"/><text text-anchor="middle" pointer-events="none" font-size="8px" fill="#000000" x="84.8085230206183" y="3" transform="rotate(180 84.8085230206183 0)" font-family="sans-serif">ORIGIN</text></g><g class="relationship" transform="translate(110.5307099556136 -109.81802517517318) rotate(246.23831143919278)"><path class="outline" fill="#A5ABB6" stroke="none" d="M 25 0.5 L 26.635514783604805 0.5 L 26.635514783604805 -0.5 L 25 -0.5 Z M 69.9714522836048 0.5 L 71.60696706720961 0.5 L 71.60696706720961 3.5 L 78.60696706720961 0 L 71.60696706720961 -3.5 L 71.60696706720961 -0.5 L 69.9714522836048 -0.5 Z"/><text text-anchor="middle" pointer-events="none" font-size="8px" fill="#000000" x="48.303483533604805" y="3" transform="rotate(180 48.303483533604805 0)" font-family="sans-serif">DESTIN…</text></g><g class="relationship" transform="translate(215.60532000406306 107.41955931459435) rotate(198.83590512826333)"><path class="outline" fill="#A5ABB6" stroke="none" d="M 25 0.5 L 43.33509307499297 0.5 L 43.33509307499297 -0.5 L 25 -0.5 Z M 77.78040557499297 0.5 L 96.11549864998594 0.5 L 96.11549864998594 3.5 L 103.11549864998594 0 L 96.11549864998594 -3.5 L 96.11549864998594 -0.5 L 77.78040557499297 -0.5 Z"/><text text-anchor="middle" pointer-events="none" font-size="8px" fill="#000000" x="60.55774932499297" y="3" transform="rotate(180 60.55774932499297 0)" font-family="sans-serif">ORIGIN</text></g><g class="relationship" transform="translate(215.60532000406306 107.41955931459435) rotate(385.12016987874864)"><path class="outline" fill="#A5ABB6" stroke="none" d="M 25 0.5 L 47.22141437533374 0.5 L 47.22141437533374 -0.5 L 25 -0.5 Z M 106.40891437533374 0.5 L 128.63032875066747 0.5 L 128.63032875066747 3.5 L 135.63032875066747 0 L 128.63032875066747 -3.5 L 128.63032875066747 -0.5 L 106.40891437533374 -0.5 Z"/><text text-anchor="middle" pointer-events="none" font-size="8px" fill="#000000" x="76.81516437533374" y="3" font-family="sans-serif">DESTINATION</text></g><g class="relationship" transform="translate(266.40049000955054 75.7489885028413) rotate(183.2244268534098)"><path class="outline" fill="#A5ABB6" stroke="none" d="M 25 0.5 L 65.43860530311515 0.5 L 65.43860530311515 -0.5 L 25 -0.5 Z M 99.88391780311515 0.5 L 140.3225231062303 0.5 L 140.3225231062303 3.5 L 147.3225231062303 0 L 140.3225231062303 -3.5 L 140.3225231062303 -0.5 L 99.88391780311515 -0.5 Z"/><text text-anchor="middle" pointer-events="none" font-size="8px" fill="#000000" x="82.66126155311515" y="3" transform="rotate(180 82.66126155311515 0)" font-family="sans-serif">ORIGIN</text></g><g class="relationship" transform="translate(266.40049000955054 75.7489885028413) rotate(406.5368429055399)"><path class="outline" fill="#A5ABB6" stroke="none" d="M 25 0.5 L 35.698443136497815 0.5 L 35.698443136497815 -0.5 L 25 -0.5 Z M 94.88594313649781 0.5 L 105.58438627299563 0.5 L 105.58438627299563 3.5 L 112.58438627299563 0 L 105.58438627299563 -3.5 L 105.58438627299563 -0.5 L 94.88594313649781 -0.5 Z"/><text text-anchor="middle" pointer-events="none" font-size="8px" fill="#000000" x="65.29219313649781" y="3" font-family="sans-serif">DESTINATION</text></g><g class="relationship" transform="translate(-89.32520321840494 87.7855453327195) rotate(353.25316077940874)"><path class="outline" fill="#A5ABB6" stroke="none" d="M 25 0.5 L 71.7557514146628 0.5 L 71.7557514146628 -0.5 L 25 -0.5 Z M 106.2010639146628 0.5 L 152.9568153293256 0.5 L 152.9568153293256 3.5 L 159.9568153293256 0 L 152.9568153293256 -3.5 L 152.9568153293256 -0.5 L 106.2010639146628 -0.5 Z"/><text text-anchor="middle" pointer-events="none" font-size="8px" fill="#000000" x="88.9784076646628" y="3" font-family="sans-serif">ORIGIN</text></g><g class="relationship" transform="translate(-89.32520321840494 87.7855453327195) rotate(539.6996462975695)"><path class="outline" fill="#A5ABB6" stroke="none" d="M 25 0.5 L 27.491187261056773 0.5 L 27.491187261056773 -0.5 L 25 -0.5 Z M 65.04978101105678 0.5 L 67.54096827211355 0.5 L 67.54096827211355 3.5 L 74.54096827211355 0 L 67.54096827211355 -3.5 L 67.54096827211355 -0.5 L 65.04978101105678 -0.5 Z"/><text text-anchor="middle" pointer-events="none" font-size="8px" fill="#000000" x="46.27048413605677" y="3" transform="rotate(180 46.27048413605677 0)" font-family="sans-serif">DESTI…</text></g><g class="relationship" transform="translate(144.40144468969171 -60.49702225540591) rotate(471.5783338424613)"><path class="outline" fill="#A5ABB6" stroke="none" d="M 25 0.5 L 47.32295682610015 0.5 L 47.32295682610015 -0.5 L 25 -0.5 Z M 81.76826932610015 0.5 L 104.0912261522003 0.5 L 104.0912261522003 3.5 L 111.0912261522003 0 L 104.0912261522003 -3.5 L 104.0912261522003 -0.5 L 81.76826932610015 -0.5 Z"/><text text-anchor="middle" pointer-events="none" font-size="8px" fill="#000000" x="64.54561307610015" y="3" transform="rotate(180 64.54561307610015 0)" font-family="sans-serif">ORIGIN</text></g><g class="relationship" transform="translate(144.40144468969171 -60.49702225540591) rotate(242.3188376583904)"><path class="outline" fill="#A5ABB6" stroke="none" d="M 25 0.5 L 48.293929589157756 0.5 L 48.293929589157756 -0.5 L 25 -0.5 Z M 107.48142958915776 0.5 L 130.7753591783155 0.5 L 130.7753591783155 3.5 L 137.7753591783155 0 L 130.7753591783155 -3.5 L 130.7753591783155 -0.5 L 107.48142958915776 -0.5 Z"/><text text-anchor="middle" pointer-events="none" font-size="8px" fill="#000000" x="77.88767958915776" y="3" transform="rotate(180 77.88767958915776 0)" font-family="sans-serif">DESTINATION</text></g><g class="relationship" transform="translate(-75.34764974378076 22.071432573092274) rotate(374.5309796554794)"><path class="outline" fill="#A5ABB6" stroke="none" d="M 25 0.5 L 66.93039135340663 0.5 L 66.93039135340663 -0.5 L 25 -0.5 Z M 101.37570385340663 0.5 L 143.30609520681327 0.5 L 143.30609520681327 3.5 L 150.30609520681327 0 L 143.30609520681327 -3.5 L 143.30609520681327 -0.5 L 101.37570385340663 -0.5 Z"/><text text-anchor="middle" pointer-events="none" font-size="8px" fill="#000000" x="84.15304760340663" y="3" font-family="sans-serif">ORIGIN</text></g><g class="relationship" transform="translate(-75.34764974378076 22.071432573092274) rotate(509.7369427569514)"><path class="outline" fill="#A5ABB6" stroke="none" d="M 25 0.5 L 32.62029222277582 0.5 L 32.62029222277582 -0.5 L 25 -0.5 Z M 91.80779222277582 0.5 L 99.42808444555163 0.5 L 99.42808444555163 3.5 L 106.42808444555163 0 L 99.42808444555163 -3.5 L 99.42808444555163 -0.5 L 91.80779222277582 -0.5 Z"/><text text-anchor="middle" pointer-events="none" font-size="8px" fill="#000000" x="62.21404222277582" y="3" transform="rotate(180 62.21404222277582 0)" font-family="sans-serif">DESTINATION</text></g><g class="relationship" transform="translate(170.22701293268076 -114.17411893315114) rotate(472.83088115968576)"><path class="outline" fill="#A5ABB6" stroke="none" d="M 25 0.5 L 77.05287763097104 0.5 L 77.05287763097104 -0.5 L 25 -0.5 Z M 111.49819013097104 0.5 L 163.55106776194208 0.5 L 163.55106776194208 3.5 L 170.55106776194208 0 L 163.55106776194208 -3.5 L 163.55106776194208 -0.5 L 111.49819013097104 -0.5 Z"/><text text-anchor="middle" pointer-events="none" font-size="8px" fill="#000000" x="94.27553388097104" y="3" transform="rotate(180 94.27553388097104 0)" font-family="sans-serif">ORIGIN</text></g><g class="relationship" transform="translate(170.22701293268076 -114.17411893315114) rotate(221.7269446364969)"><path class="outline" fill="#A5ABB6" stroke="none" d="M 25 0.5 L 34.86791282314388 0.5 L 34.86791282314388 -0.5 L 25 -0.5 Z M 94.05541282314388 0.5 L 103.92332564628776 0.5 L 103.92332564628776 3.5 L 110.92332564628776 0 L 103.92332564628776 -3.5 L 103.92332564628776 -0.5 L 94.05541282314388 -0.5 Z"/><text text-anchor="middle" pointer-events="none" font-size="8px" fill="#000000" x="64.46166282314388" y="3" transform="rotate(180 64.46166282314388 0)" font-family="sans-serif">DESTINATION</text></g><g class="relationship" transform="translate(113.70381794990874 230.8825039791853) rotate(263.30328543712983)"><path class="outline" fill="#A5ABB6" stroke="none" d="M 25 0.5 L 62.25656730757406 0.5 L 62.25656730757406 -0.5 L 25 -0.5 Z M 96.70187980757406 0.5 L 133.95844711514812 0.5 L 133.95844711514812 3.5 L 140.95844711514812 0 L 133.95844711514812 -3.5 L 133.95844711514812 -0.5 L 96.70187980757406 -0.5 Z"/><text text-anchor="middle" pointer-events="none" font-size="8px" fill="#000000" x="79.47922355757406" y="3" transform="rotate(180 79.47922355757406 0)" font-family="sans-serif">ORIGIN</text></g><g class="relationship" transform="translate(113.70381794990874 230.8825039791853) rotate(417.57830764455275)"><path class="outline" fill="#A5ABB6" stroke="none" d="M 25 0.5 L 37.032642747574215 0.5 L 37.032642747574215 -0.5 L 25 -0.5 Z M 96.22014274757422 0.5 L 108.25278549514843 0.5 L 108.25278549514843 3.5 L 115.25278549514843 0 L 108.25278549514843 -3.5 L 108.25278549514843 -0.5 L 96.22014274757422 -0.5 Z"/><text text-anchor="middle" pointer-events="none" font-size="8px" fill="#000000" x="66.62639274757422" y="3" font-family="sans-serif">DESTINATION</text></g><g class="relationship" transform="translate(84.64936299472471 -56.04445296026134) rotate(445.4571572004578)"><path class="outline" fill="#A5ABB6" stroke="none" d="M 25 0.5 L 40.52013899368197 0.5 L 40.52013899368197 -0.5 L 25 -0.5 Z M 74.96545149368197 0.5 L 90.48559048736394 0.5 L 90.48559048736394 3.5 L 97.48559048736394 0 L 90.48559048736394 -3.5 L 90.48559048736394 -0.5 L 74.96545149368197 -0.5 Z"/><text text-anchor="middle" pointer-events="none" font-size="8px" fill="#000000" x="57.74279524368197" y="3" font-family="sans-serif">ORIGIN</text></g><g class="relationship" transform="translate(84.64936299472471 -56.04445296026134) rotate(263.90577632267525)"><path class="outline" fill="#A5ABB6" stroke="none" d="M 25 0.5 L 41.62737706404562 0.5 L 41.62737706404562 -0.5 L 25 -0.5 Z M 100.81487706404562 0.5 L 117.44225412809124 0.5 L 117.44225412809124 3.5 L 124.44225412809124 0 L 117.44225412809124 -3.5 L 117.44225412809124 -0.5 L 100.81487706404562 -0.5 Z"/><text text-anchor="middle" pointer-events="none" font-size="8px" fill="#000000" x="71.22112706404562" y="3" transform="rotate(180 71.22112706404562 0)" font-family="sans-serif">DESTINATION</text></g><g class="relationship" transform="translate(49.53388467041017 -104.41015184874706) rotate(435.2698640633892)"><path class="outline" fill="#A5ABB6" stroke="none" d="M 25 0.5 L 67.40704487564386 0.5 L 67.40704487564386 -0.5 L 25 -0.5 Z M 101.85235737564386 0.5 L 144.25940225128772 0.5 L 144.25940225128772 3.5 L 151.25940225128772 0 L 144.25940225128772 -3.5 L 144.25940225128772 -0.5 L 101.85235737564386 -0.5 Z"/><text text-anchor="middle" pointer-events="none" font-size="8px" fill="#000000" x="84.62970112564386" y="3" font-family="sans-serif">ORIGIN</text></g><g class="relationship" transform="translate(49.53388467041017 -104.41015184874706) rotate(280.87159715247805)"><path class="outline" fill="#A5ABB6" stroke="none" d="M 25 0.5 L 25.863937552278493 0.5 L 25.863937552278493 -0.5 L 25 -0.5 Z M 69.19987505227849 0.5 L 70.06381260455699 0.5 L 70.06381260455699 3.5 L 77.06381260455699 0 L 70.06381260455699 -3.5 L 70.06381260455699 -0.5 L 69.19987505227849 -0.5 Z"/><text text-anchor="middle" pointer-events="none" font-size="8px" fill="#000000" x="47.53190630227849" y="3" font-family="sans-serif">DESTIN…</text></g><g class="relationship" transform="translate(24.945940637985824 -50.066303734162595) rotate(419.1338450840522)"><path class="outline" fill="#A5ABB6" stroke="none" d="M 25 0.5 L 46.918858951968815 0.5 L 46.918858951968815 -0.5 L 25 -0.5 Z M 81.36417145196882 0.5 L 103.28303040393763 0.5 L 103.28303040393763 3.5 L 110.28303040393763 0 L 103.28303040393763 -3.5 L 103.28303040393763 -0.5 L 81.36417145196882 -0.5 Z"/><text text-anchor="middle" pointer-events="none" font-size="8px" fill="#000000" x="64.14151520196882" y="3" font-family="sans-serif">ORIGIN</text></g><g class="relationship" transform="translate(24.945940637985824 -50.066303734162595) rotate(285.83345614449416)"><path class="outline" fill="#A5ABB6" stroke="none" d="M 25 0.5 L 47.24221638108655 0.5 L 47.24221638108655 -0.5 L 25 -0.5 Z M 106.42971638108655 0.5 L 128.6719327621731 0.5 L 128.6719327621731 3.5 L 135.6719327621731 0 L 128.6719327621731 -3.5 L 128.6719327621731 -0.5 L 106.42971638108655 -0.5 Z"/><text text-anchor="middle" pointer-events="none" font-size="8px" fill="#000000" x="76.83596638108655" y="3" font-family="sans-serif">DESTINATION</text></g><g class="relationship" transform="translate(-7.170965481852082 190.2622151402123) rotate(309.2614175422814)"><path class="outline" fill="#A5ABB6" stroke="none" d="M 25 0.5 L 59.48607828700608 0.5 L 59.48607828700608 -0.5 L 25 -0.5 Z M 93.93139078700608 0.5 L 128.41746907401216 0.5 L 128.41746907401216 3.5 L 135.41746907401216 0 L 128.41746907401216 -3.5 L 128.41746907401216 -0.5 L 93.93139078700608 -0.5 Z"/><text text-anchor="middle" pointer-events="none" font-size="8px" fill="#000000" x="76.70873453700608" y="3" font-family="sans-serif">ORIGIN</text></g><g class="relationship" transform="translate(-7.170965481852082 190.2622151402123) rotate(490.55771120209727)"><path class="outline" fill="#A5ABB6" stroke="none" d="M 25 0.5 L 42.99680346114613 0.5 L 42.99680346114613 -0.5 L 25 -0.5 Z M 102.18430346114613 0.5 L 120.18110692229226 0.5 L 120.18110692229226 3.5 L 127.18110692229226 0 L 120.18110692229226 -3.5 L 120.18110692229226 -0.5 L 102.18430346114613 -0.5 Z"/><text text-anchor="middle" pointer-events="none" font-size="8px" fill="#000000" x="72.59055346114613" y="3" transform="rotate(180 72.59055346114613 0)" font-family="sans-serif">DESTINATION</text></g><g class="relationship" transform="translate(222.22483483295088 174.0465444494686) rotate(220.18123991729829)"><path class="outline" fill="#A5ABB6" stroke="none" d="M 25 0.5 L 62.963753139498564 0.5 L 62.963753139498564 -0.5 L 25 -0.5 Z M 97.40906563949856 0.5 L 135.37281877899713 0.5 L 135.37281877899713 3.5 L 142.37281877899713 0 L 135.37281877899713 -3.5 L 135.37281877899713 -0.5 L 97.40906563949856 -0.5 Z"/><text text-anchor="middle" pointer-events="none" font-size="8px" fill="#000000" x="80.18640938949856" y="3" transform="rotate(180 80.18640938949856 0)" font-family="sans-serif">ORIGIN</text></g><g class="relationship" transform="translate(222.22483483295088 174.0465444494686) rotate(360.6452950237049)"><path class="outline" fill="#A5ABB6" stroke="none" d="M 25 0.5 L 36.319803774737665 0.5 L 36.319803774737665 -0.5 L 25 -0.5 Z M 95.50730377473766 0.5 L 106.82710754947533 0.5 L 106.82710754947533 3.5 L 113.82710754947533 0 L 106.82710754947533 -3.5 L 106.82710754947533 -0.5 L 95.50730377473766 -0.5 Z"/><text text-anchor="middle" pointer-events="none" font-size="8px" fill="#000000" x="65.91355377473766" y="3" font-family="sans-serif">DESTINATION</text></g><g class="relationship" transform="translate(-10.138813819103152 -98.27494367063484) rotate(417.5498721899284)"><path class="outline" fill="#A5ABB6" stroke="none" d="M 25 0.5 L 76.64628566667228 0.5 L 76.64628566667228 -0.5 L 25 -0.5 Z M 111.09159816667228 0.5 L 162.73788383334457 0.5 L 162.73788383334457 3.5 L 169.73788383334457 0 L 162.73788383334457 -3.5 L 162.73788383334457 -0.5 L 111.09159816667228 -0.5 Z"/><text text-anchor="middle" pointer-events="none" font-size="8px" fill="#000000" x="93.86894191667228" y="3" font-family="sans-serif">ORIGIN</text></g><g class="relationship" transform="translate(-10.138813819103152 -98.27494367063484) rotate(306.574839434681)"><path class="outline" fill="#A5ABB6" stroke="none" d="M 25 0.5 L 33.13085804903071 0.5 L 33.13085804903071 -0.5 L 25 -0.5 Z M 92.3183580490307 0.5 L 100.44921609806141 0.5 L 100.44921609806141 3.5 L 107.44921609806141 0 L 100.44921609806141 -3.5 L 100.44921609806141 -0.5 L 92.3183580490307 -0.5 Z"/><text text-anchor="middle" pointer-events="none" font-size="8px" fill="#000000" x="62.72460804903071" y="3" font-family="sans-serif">DESTINATION</text></g><g class="relationship" transform="translate(52.722896595719035 216.97294650426963) rotate(285.42064769588876)"><path class="outline" fill="#A5ABB6" stroke="none" d="M 25 0.5 L 57.5536233782546 0.5 L 57.5536233782546 -0.5 L 25 -0.5 Z M 91.9989358782546 0.5 L 124.5525592565092 0.5 L 124.5525592565092 3.5 L 131.5525592565092 0 L 124.5525592565092 -3.5 L 124.5525592565092 -0.5 L 91.9989358782546 -0.5 Z"/><text text-anchor="middle" pointer-events="none" font-size="8px" fill="#000000" x="74.7762796282546" y="3" font-family="sans-serif">ORIGIN</text></g><g class="relationship" transform="translate(52.722896595719035 216.97294650426963) rotate(459.95680331632474)"><path class="outline" fill="#A5ABB6" stroke="none" d="M 25 0.5 L 43.52771115861219 0.5 L 43.52771115861219 -0.5 L 25 -0.5 Z M 102.71521115861219 0.5 L 121.24292231722438 0.5 L 121.24292231722438 3.5 L 128.24292231722438 0 L 121.24292231722438 -3.5 L 121.24292231722438 -0.5 L 102.71521115861219 -0.5 Z"/><text text-anchor="middle" pointer-events="none" font-size="8px" fill="#000000" x="73.12146115861219" y="3" transform="rotate(180 73.12146115861219 0)" font-family="sans-serif">DESTINATION</text></g></g><g class="layer nodes"><g class="node" transform="translate(94.35077497724318,66.05633525416283)"><circle class="outline" cx="0" cy="0" r="25" fill="#4C8EDA" stroke="#2870c2" stroke-width="2px"/><text text-anchor="middle" pointer-events="none" font-family="sans-serif" dy="1.5625" font-size="25" fill="#FFFFFF"/><text text-anchor="middle" pointer-events="none" x="0" y="5" font-size="10px" fill="#FFFFFF" font-family="sans-serif"> LAX</text></g><g class="node" transform="translate(-188.86480378819223,88.3073527273742)"><circle class="outline" cx="0" cy="0" r="25" fill="#4C8EDA" stroke="#2870c2" stroke-width="2px"/><text text-anchor="middle" pointer-events="none" font-family="sans-serif" dy="1.5625" font-size="25" fill="#FFFFFF"/><text text-anchor="middle" pointer-events="none" x="0" y="5" font-size="10px" fill="#FFFFFF" font-family="sans-serif"> SMF</text></g><g class="node" transform="translate(361.0431377535225,175.61005486069323)"><circle class="outline" cx="0" cy="0" r="25" fill="#4C8EDA" stroke="#2870c2" stroke-width="2px"/><text text-anchor="middle" pointer-events="none" font-family="sans-serif" dy="1.5625" font-size="25" fill="#FFFFFF"/><text text-anchor="middle" pointer-events="none" x="0" y="5" font-size="10px" fill="#FFFFFF" font-family="sans-serif"> FAT</text></g><g class="node" transform="translate(377.9982112593364,-66.8521162643893)"><circle class="outline" cx="0" cy="0" r="25" fill="#4C8EDA" stroke="#2870c2" stroke-width="2px"/><text text-anchor="middle" pointer-events="none" font-family="sans-serif" dy="1.5625" font-size="25" fill="#FFFFFF"/><text text-anchor="middle" pointer-events="none" x="0" y="5" font-size="10px" fill="#FFFFFF" font-family="sans-serif"> LAS</text></g><g class="node" transform="translate(188.89984702313026,349.2733864438723)"><circle class="outline" cx="0" cy="0" r="25" fill="#4C8EDA" stroke="#2870c2" stroke-width="2px"/><text text-anchor="middle" pointer-events="none" font-family="sans-serif" dy="1.5625" font-size="25" fill="#FFFFFF"/><text text-anchor="middle" pointer-events="none" x="0" y="5" font-size="10px" fill="#FFFFFF" font-family="sans-serif"> TUS</text></g><g class="node" transform="translate(68.78400156449383,-204.64215693166577)"><circle class="outline" cx="0" cy="0" r="25" fill="#4C8EDA" stroke="#2870c2" stroke-width="2px"/><text text-anchor="middle" pointer-events="none" font-family="sans-serif" dy="1.5625" font-size="25" fill="#FFFFFF"/><text text-anchor="middle" pointer-events="none" x="0" y="5" font-size="10px" fill="#FFFFFF" font-family="sans-serif"> ABQ</text></g><g class="node" transform="translate(-106.12119665378623,305.8820276946138)"><circle class="outline" cx="0" cy="0" r="25" fill="#4C8EDA" stroke="#2870c2" stroke-width="2px"/><text text-anchor="middle" pointer-events="none" font-family="sans-serif" dy="1.5625" font-size="25" fill="#FFFFFF"/><text text-anchor="middle" pointer-events="none" x="0" y="5" font-size="10px" fill="#FFFFFF" font-family="sans-serif"> EWR</text></g><g class="node" transform="translate(26.22632830386458,367.9077837986397)"><circle class="outline" cx="0" cy="0" r="25" fill="#4C8EDA" stroke="#2870c2" stroke-width="2px"/><text text-anchor="middle" pointer-events="none" font-family="sans-serif" dy="1.5625" font-size="25" fill="#FFFFFF"/><text text-anchor="middle" pointer-events="none" x="0" y="5" font-size="10px" fill="#FFFFFF" font-family="sans-serif"> IAH</text></g><g class="node" transform="translate(-53.95188306790592,135.97589941085647)"><circle class="outline" cx="0" cy="0" r="25" fill="#FFC454" stroke="#d7a013" stroke-width="2px"/><text text-anchor="middle" pointer-events="none" font-family="sans-serif" dy="1.5625" font-size="25" fill="#2A2C34"/><text text-anchor="middle" pointer-events="none" x="0" y="5" font-size="10px" fill="#2A2C34" font-family="sans-serif"> 11/4/2015</text></g><g class="node" transform="translate(267.98479042087024,135.6239080832176)"><circle class="outline" cx="0" cy="0" r="25" fill="#FFC454" stroke="#d7a013" stroke-width="2px"/><text text-anchor="middle" pointer-events="none" font-family="sans-serif" dy="1.5625" font-size="25" fill="#2A2C34"/><text text-anchor="middle" pointer-events="none" x="0" y="5" font-size="10px" fill="#2A2C34" font-family="sans-serif"> 11/4/2015</text></g><g class="node" transform="translate(241.04752549062664,-8.234696235153697)"><circle class="outline" cx="0" cy="0" r="25" fill="#FFC454" stroke="#d7a013" stroke-width="2px"/><text text-anchor="middle" pointer-events="none" font-family="sans-serif" dy="1.5625" font-size="25" fill="#2A2C34"/><text text-anchor="middle" pointer-events="none" x="0" y="5" font-size="10px" fill="#2A2C34" font-family="sans-serif"> 11/29/20…</text></g><g class="node" transform="translate(-34.1864409052132,65.60214457801536)"><circle class="outline" cx="0" cy="0" r="25" fill="#FFC454" stroke="#d7a013" stroke-width="2px"/><text text-anchor="middle" pointer-events="none" font-family="sans-serif" dy="1.5625" font-size="25" fill="#2A2C34"/><text text-anchor="middle" pointer-events="none" x="0" y="5" font-size="10px" fill="#2A2C34" font-family="sans-serif"> 11/2/2015</text></g><g class="node" transform="translate(170.73218974787864,213.07191725344308)"><circle class="outline" cx="0" cy="0" r="25" fill="#FFC454" stroke="#d7a013" stroke-width="2px"/><text text-anchor="middle" pointer-events="none" font-family="sans-serif" dy="1.5625" font-size="25" fill="#2A2C34"/><text text-anchor="middle" pointer-events="none" x="0" y="5" font-size="10px" fill="#2A2C34" font-family="sans-serif"> 11/1/2015</text></g><g class="node" transform="translate(110.5307099556136,-109.81802517517318)"><circle class="outline" cx="0" cy="0" r="25" fill="#FFC454" stroke="#d7a013" stroke-width="2px"/><text text-anchor="middle" pointer-events="none" font-family="sans-serif" dy="1.5625" font-size="25" fill="#2A2C34"/><text text-anchor="middle" pointer-events="none" x="0" y="5" font-size="10px" fill="#2A2C34" font-family="sans-serif"> 11/2/2015</text></g><g class="node" transform="translate(215.60532000406306,107.41955931459435)"><circle class="outline" cx="0" cy="0" r="25" fill="#FFC454" stroke="#d7a013" stroke-width="2px"/><text text-anchor="middle" pointer-events="none" font-family="sans-serif" dy="1.5625" font-size="25" fill="#2A2C34"/><text text-anchor="middle" pointer-events="none" x="0" y="5" font-size="10px" fill="#2A2C34" font-family="sans-serif"> 11/3/2015</text></g><g class="node" transform="translate(266.40049000955054,75.7489885028413)"><circle class="outline" cx="0" cy="0" r="25" fill="#FFC454" stroke="#d7a013" stroke-width="2px"/><text text-anchor="middle" pointer-events="none" font-family="sans-serif" dy="1.5625" font-size="25" fill="#2A2C34"/><text text-anchor="middle" pointer-events="none" x="0" y="5" font-size="10px" fill="#2A2C34" font-family="sans-serif"> 11/1/2015</text></g><g class="node" transform="translate(-89.32520321840494,87.7855453327195)"><circle class="outline" cx="0" cy="0" r="25" fill="#FFC454" stroke="#d7a013" stroke-width="2px"/><text text-anchor="middle" pointer-events="none" font-family="sans-serif" dy="1.5625" font-size="25" fill="#2A2C34"/><text text-anchor="middle" pointer-events="none" x="0" y="5" font-size="10px" fill="#2A2C34" font-family="sans-serif"> 11/1/2015</text></g><g class="node" transform="translate(144.40144468969171,-60.49702225540591)"><circle class="outline" cx="0" cy="0" r="25" fill="#FFC454" stroke="#d7a013" stroke-width="2px"/><text text-anchor="middle" pointer-events="none" font-family="sans-serif" dy="1.5625" font-size="25" fill="#2A2C34"/><text text-anchor="middle" pointer-events="none" x="0" y="5" font-size="10px" fill="#2A2C34" font-family="sans-serif"> 11/3/2015</text></g><g class="node" transform="translate(-75.34764974378076,22.071432573092274)"><circle class="outline" cx="0" cy="0" r="25" fill="#FFC454" stroke="#d7a013" stroke-width="2px"/><text text-anchor="middle" pointer-events="none" font-family="sans-serif" dy="1.5625" font-size="25" fill="#2A2C34"/><text text-anchor="middle" pointer-events="none" x="0" y="5" font-size="10px" fill="#2A2C34" font-family="sans-serif"> 11/3/2015</text></g><g class="node" transform="translate(170.22701293268076,-114.17411893315114)"><circle class="outline" cx="0" cy="0" r="25" fill="#FFC454" stroke="#d7a013" stroke-width="2px"/><text text-anchor="middle" pointer-events="none" font-family="sans-serif" dy="1.5625" font-size="25" fill="#2A2C34"/><text text-anchor="middle" pointer-events="none" x="0" y="5" font-size="10px" fill="#2A2C34" font-family="sans-serif"> 11/1/2015</text></g><g class="node" transform="translate(113.70381794990874,230.8825039791853)"><circle class="outline" cx="0" cy="0" r="25" fill="#FFC454" stroke="#d7a013" stroke-width="2px"/><text text-anchor="middle" pointer-events="none" font-family="sans-serif" dy="1.5625" font-size="25" fill="#2A2C34"/><text text-anchor="middle" pointer-events="none" x="0" y="5" font-size="10px" fill="#2A2C34" font-family="sans-serif"> 11/2/2015</text></g><g class="node" transform="translate(84.64936299472471,-56.04445296026134)"><circle class="outline" cx="0" cy="0" r="25" fill="#FFC454" stroke="#d7a013" stroke-width="2px"/><text text-anchor="middle" pointer-events="none" font-family="sans-serif" dy="1.5625" font-size="25" fill="#2A2C34"/><text text-anchor="middle" pointer-events="none" x="0" y="5" font-size="10px" fill="#2A2C34" font-family="sans-serif"> 11/1/2015</text></g><g class="node" transform="translate(49.53388467041017,-104.41015184874706)"><circle class="outline" cx="0" cy="0" r="25" fill="#FFC454" stroke="#d7a013" stroke-width="2px"/><text text-anchor="middle" pointer-events="none" font-family="sans-serif" dy="1.5625" font-size="25" fill="#2A2C34"/><text text-anchor="middle" pointer-events="none" x="0" y="5" font-size="10px" fill="#2A2C34" font-family="sans-serif"> 11/2/2015</text></g><g class="node" transform="translate(24.945940637985824,-50.066303734162595)"><circle class="outline" cx="0" cy="0" r="25" fill="#FFC454" stroke="#d7a013" stroke-width="2px"/><text text-anchor="middle" pointer-events="none" font-family="sans-serif" dy="1.5625" font-size="25" fill="#2A2C34"/><text text-anchor="middle" pointer-events="none" x="0" y="5" font-size="10px" fill="#2A2C34" font-family="sans-serif"> 11/4/2015</text></g><g class="node" transform="translate(-7.170965481852082,190.2622151402123)"><circle class="outline" cx="0" cy="0" r="25" fill="#FFC454" stroke="#d7a013" stroke-width="2px"/><text text-anchor="middle" pointer-events="none" font-family="sans-serif" dy="1.5625" font-size="25" fill="#2A2C34"/><text text-anchor="middle" pointer-events="none" x="0" y="5" font-size="10px" fill="#2A2C34" font-family="sans-serif"> 11/30/20…</text></g><g class="node" transform="translate(222.22483483295088,174.0465444494686)"><circle class="outline" cx="0" cy="0" r="25" fill="#FFC454" stroke="#d7a013" stroke-width="2px"/><text text-anchor="middle" pointer-events="none" font-family="sans-serif" dy="1.5625" font-size="25" fill="#2A2C34"/><text text-anchor="middle" pointer-events="none" x="0" y="5" font-size="10px" fill="#2A2C34" font-family="sans-serif"> 11/2/2015</text></g><g class="node" transform="translate(-10.138813819103152,-98.27494367063484)"><circle class="outline" cx="0" cy="0" r="25" fill="#FFC454" stroke="#d7a013" stroke-width="2px"/><text text-anchor="middle" pointer-events="none" font-family="sans-serif" dy="1.5625" font-size="25" fill="#2A2C34"/><text text-anchor="middle" pointer-events="none" x="0" y="5" font-size="10px" fill="#2A2C34" font-family="sans-serif"> 11/3/2015</text></g><g class="node" transform="translate(52.722896595719035,216.97294650426963)"><circle class="outline" cx="0" cy="0" r="25" fill="#FFC454" stroke="#d7a013" stroke-width="2px"/><text text-anchor="middle" pointer-events="none" font-family="sans-serif" dy="1.5625" font-size="25" fill="#2A2C34"/><text text-anchor="middle" pointer-events="none" x="0" y="5" font-size="10px" fill="#2A2C34" font-family="sans-serif"> 11/30/20…</text></g></g></svg>