<svg xmlns="http://www.w3.org/2000/svg" width="162.35226440429688" height="244.7561492919922" viewBox="-2.624479293823242 -21.556713104248047 162.35226440429688 244.7561492919922"><title>Neo4j Graph Visualization</title><desc>Created using Neo4j (http://www.neo4j.com/)</desc><g class="layer relationships"><g class="relationship" transform="translate(130.72778472960573 7.4432876767659994) rotate(522.5333043374535)"><path class="outline" fill="#A5ABB6" stroke="none" d="M 21.40063509461097,12.933012701892217 L 21.90063509461097,12.06698729810778 A 59.657342729433054 59.657342729433054 0 0 0 23.345247736421523,12.874527119241144 L 22.869462905514162,13.754088825250712 A 60.657342729433054 60.657342729433054 0 0 1 21.40063509461097,12.933012701892217 Z M 77.23933579191478,15.434491050072289 L 76.81877616657187,14.527226148551556 A 59.657342729433054 59.657342729433054 0 0 0 78.31050096405406,13.810439307034747 L 76.97380744292549,11.124689797014703 L 84.80003207428892,11.139112676071424 L 80.09275899222548,17.391438653728137 L 78.75606547109692,14.705689143708094 A 60.657342729433054 60.657342729433054 0 0 1 77.23933579191478,15.434491050072289"/><text text-anchor="middle" pointer-events="none" font-size="8px" fill="#000000" x="49.87091908137283" y="23.530844094263486" transform="rotate(180 49.87091908137283 20.530844094263486)" font-family="sans-serif">PublicTrans…</text></g><g class="relationship" transform="translate(28.48846601485629 39.61389632121344) rotate(451.135365874326)"><path class="outline" fill="#A5ABB6" stroke="none" d="M 25 0.5 L 40.149962362663125 0.5 L 40.149962362663125 -0.5 L 25 -0.5 Z M 59.485899862663125 0.5 L 74.63586222532625 0.5 L 74.63586222532625 3.5 L 81.63586222532625 0 L 74.63586222532625 -3.5 L 74.63586222532625 -0.5 L 59.485899862663125 -0.5 Z"/><text text-anchor="middle" pointer-events="none" font-size="8px" fill="#000000" x="49.817931112663125" y="3" transform="rotate(180 49.817931112663125 0)" font-family="sans-serif">trek</text></g><g class="relationship" transform="translate(26.375521628984757 146.2288229429627) rotate(386.5679779872927)"><path class="outline" fill="#A5ABB6" stroke="none" d="M 25 0.5 L 40.45931905375612 0.5 L 40.45931905375612 -0.5 L 25 -0.5 Z M 59.79525655375612 0.5 L 75.25457560751224 0.5 L 75.25457560751224 3.5 L 82.25457560751224 0 L 75.25457560751224 -3.5 L 75.25457560751224 -0.5 L 59.79525655375612 -0.5 Z"/><text text-anchor="middle" pointer-events="none" font-size="8px" fill="#000000" x="50.12728780375612" y="3" font-family="sans-serif">trek</text></g><g class="relationship" transform="translate(130.72778472960573 7.4432876767659994) rotate(522.5333043374535)"><path class="outline" fill="#A5ABB6" stroke="none" d="M 25 0.5 L 39.08477962056132 0.5 L 39.08477962056132 -0.5 L 25 -0.5 Z M 61.09649837056132 0.5 L 75.18127799112264 0.5 L 75.18127799112264 3.5 L 82.18127799112264 0 L 75.18127799112264 -3.5 L 75.18127799112264 -0.5 L 61.09649837056132 -0.5 Z"/><text text-anchor="middle" pointer-events="none" font-size="8px" fill="#000000" x="50.09063899556132" y="3" transform="rotate(180 50.09063899556132 0)" font-family="sans-serif">road</text></g><g class="relationship" transform="translate(130.72778472960573 7.4432876767659994) rotate(522.5333043374535)"><path class="outline" fill="#A5ABB6" stroke="none" d="M 21.40063509461097,-12.933012701892217 L 21.90063509461097,-12.06698729810778 A 59.657342729433054 59.657342729433054 0 0 1 40.3682754643307,-18.96777893259337 L 40.177837364421976,-19.949478138105505 A 60.657342729433054 60.657342729433054 0 0 0 21.40063509461097,-12.933012701892217 Z M 59.581402245836834,-20.54918146395888 L 59.45195220016744,-19.55759551928429 A 59.657342729433054 59.657342729433054 0 0 1 78.31050096405406,-13.810439307034747 L 76.97380744292549,-11.124689797014703 L 84.80003207428892,-11.139112676071424 L 80.09275899222548,-17.391438653728137 L 78.75606547109692,-14.705689143708094 A 60.657342729433054 60.657342729433054 0 0 0 59.581402245836834,-20.54918146395888"/><text text-anchor="middle" pointer-events="none" font-size="8px" fill="#000000" x="49.870919081372826" y="-17.530844094263486" transform="rotate(180 49.870919081372826 -20.530844094263486)" font-family="sans-serif">trek</text></g></g><g class="layer nodes"><g class="node" transform="translate(130.72778472960573,7.4432876767659994)"><circle class="outline" cx="0" cy="0" r="25" fill="#8DCC93" stroke="#5db665" stroke-width="2px"/><text text-anchor="middle" pointer-events="none" font-family="sans-serif" dy="1.5625" font-size="25" fill="#2A2C34"/><text text-anchor="middle" pointer-events="none" x="0" y="5" font-size="10px" fill="#2A2C34" font-family="sans-serif"> Darjeeling</text></g><g class="node" transform="translate(122.30448007945131,194.19942768541117)"><circle class="outline" cx="0" cy="0" r="25" fill="#ECB5C9" stroke="#da7298" stroke-width="2px"/><text text-anchor="middle" pointer-events="none" font-family="sans-serif" dy="1.5625" font-size="25" fill="#2A2C34"/><text text-anchor="middle" pointer-events="none" x="0" y="5" font-size="10px" fill="#2A2C34" font-family="sans-serif"> Sandak…</text></g><g class="node" transform="translate(28.48846601485629,39.61389632121344)"><circle class="outline" cx="0" cy="0" r="25" fill="#8DCC93" stroke="#5db665" stroke-width="2px"/><text text-anchor="middle" pointer-events="none" font-family="sans-serif" dy="1.5625" font-size="25" fill="#2A2C34"/><text text-anchor="middle" pointer-events="none" x="0" y="5" font-size="10px" fill="#2A2C34" font-family="sans-serif"> Rimbik</text></g><g class="node" transform="translate(26.375521628984757,146.2288229429627)"><circle class="outline" cx="0" cy="0" r="25" fill="#D9C8AE" stroke="#c0a378" stroke-width="2px"/><text text-anchor="middle" pointer-events="none" font-family="sans-serif" dy="1.5625" font-size="25" fill="#2A2C34"/><text text-anchor="middle" pointer-events="none" x="0" y="5" font-size="10px" fill="#2A2C34" font-family="sans-serif"> BhikeBh…</text></g></g></svg>