<svg xmlns="http://www.w3.org/2000/svg" width="345.11474609375" height="298.8189392089844" viewBox="-78.01588439941406 -59.44807434082031 345.11474609375 298.8189392089844"><title>Neo4j Graph Visualization</title><desc>Created using Neo4j (http://www.neo4j.com/)</desc><g class="layer relationships"><g class="relationship" transform="translate(238.0988787552602 173.78554047851796) rotate(266.08803679291213)"><path class="outline" fill="#A5ABB6" stroke="none" d="M 24.018736134675446,-6.953439040707552 L 24.277555179777966,-5.987513214418485 A 108.15184540049457 108.15184540049457 0 0 1 40.96263262332738,-9.080048622164142 L 40.858088129729396,-10.074568832546177 A 109.15184540049457 109.15184540049457 0 0 0 24.018736134675446,-6.953439040707552 Z M 60.25497616188264,-10.380186268041228 L 60.18181511178612,-9.382866128492864 A 108.15184540049457 108.15184540049457 0 0 1 76.95603822624436,-6.81751557705227 L 76.2712586294908,-3.8967148471376083 L 83.88536986217083,-5.706496639613056 L 77.86907768858245,-10.71191655027182 L 77.1842980918289,-7.791115820357157 A 109.15184540049457 109.15184540049457 0 0 0 60.25497616188264,-10.380186268041228"/><text text-anchor="middle" pointer-events="none" font-size="8px" fill="#000000" x="50.557606131059735" y="-7.1592139925412255" transform="rotate(180 50.557606131059735 -10.159213992541225)" font-family="sans-serif">trek</text></g><g class="relationship" transform="translate(230.71535367038751 65.81232363418736) rotate(238.10373462497353)"><path class="outline" fill="#A5ABB6" stroke="none" d="M 21.40063509461097,-12.933012701892217 L 21.90063509461097,-12.06698729810778 A 66.05969074097487 66.05969074097487 0 0 1 42.153155771774536,-19.669828102767298 L 41.95973487394707,-20.650943975783136 A 67.05969074097487 67.05969074097487 0 0 0 21.40063509461097,-12.933012701892217 Z M 64.0264133228286,-21.29756071698435 L 63.89077397291177,-20.306802438313852 A 66.05969074097487 66.05969074097487 0 0 1 84.55373219450304,-13.902902094561849 L 83.20843744378011,-11.221450615665146 L 91.03466810371584,-11.210789589357788 L 86.34745852880029,-17.47817073309079 L 85.00216377807736,-14.796719254194084 A 67.05969074097487 67.05969074097487 0 0 0 64.0264133228286,-21.29756071698435"/><text text-anchor="middle" pointer-events="none" font-size="8px" fill="#000000" x="52.98092812985718" y="-18.388750092789707" transform="rotate(180 52.98092812985718 -21.388750092789707)" font-family="sans-serif">road</text></g><g class="relationship" transform="translate(170.80723824113429 -30.44807384514181) rotate(507.9555211387267)"><path class="outline" fill="#A5ABB6" stroke="none" d="M 21.40063509461097,12.933012701892217 L 21.90063509461097,12.06698729810778 A 64.32171459645491 64.32171459645491 0 0 0 29.719110081357634,15.900395289197512 L 29.340662733301052,16.826018109113342 A 65.32171459645491 65.32171459645491 0 0 1 21.40063509461097,12.933012701892217 Z M 75.14766188555491,18.187499586020074 L 74.82485698640333,17.241034057285013 A 64.32171459645491 64.32171459645491 0 0 0 82.85720336374581,13.878746202426752 L 81.51415563165872,11.196168563413165 L 89.34039247679203,11.192064434059127 L 84.64793367319527,17.4555163877782 L 83.30488594110818,14.772938748764615 A 65.32171459645491 65.32171459645491 0 0 1 75.14766188555491,18.187499586020074"/><text text-anchor="middle" pointer-events="none" font-size="8px" fill="#000000" x="52.13570355376578" y="24.155850086002374" transform="rotate(180 52.13570355376578 21.155850086002374)" font-family="sans-serif">twowheeler</text></g><g class="relationship" transform="translate(76.13030878182217 28.81488340261858) rotate(530.8720274129531)"><path class="outline" fill="#A5ABB6" stroke="none" d="M 25 0.5 L 43.65140221969946 0.5 L 43.65140221969946 -0.5 L 25 -0.5 Z M 62.98733971969946 0.5 L 81.63874193939893 0.5 L 81.63874193939893 3.5 L 88.63874193939893 0 L 81.63874193939893 -3.5 L 81.63874193939893 -0.5 L 62.98733971969946 -0.5 Z"/><text text-anchor="middle" pointer-events="none" font-size="8px" fill="#000000" x="53.31937096969946" y="3" transform="rotate(180 53.31937096969946 0)" font-family="sans-serif">trek</text></g><g class="relationship" transform="translate(170.80723824113429 -30.44807384514181) rotate(507.9555211387267)"><path class="outline" fill="#A5ABB6" stroke="none" d="M 25 0.5 L 41.34174369261929 0.5 L 41.34174369261929 -0.5 L 25 -0.5 Z M 63.35346244261929 0.5 L 79.69520613523858 0.5 L 79.69520613523858 3.5 L 86.69520613523858 0 L 79.69520613523858 -3.5 L 79.69520613523858 -0.5 L 63.35346244261929 -0.5 Z"/><text text-anchor="middle" pointer-events="none" font-size="8px" fill="#000000" x="52.34760306761929" y="3" transform="rotate(180 52.34760306761929 0)" font-family="sans-serif">road</text></g><g class="relationship" transform="translate(170.80723824113429 -30.44807384514181) rotate(507.9555211387267)"><path class="outline" fill="#A5ABB6" stroke="none" d="M 21.40063509461097,-12.933012701892217 L 21.90063509461097,-12.06698729810778 A 64.32171459645491 64.32171459645491 0 0 1 42.6181243638735,-19.65834305061486 L 42.44021604627409,-20.642390117847384 A 65.32171459645491 65.32171459645491 0 0 0 21.40063509461097,-12.933012701892217 Z M 61.84457140462609,-21.219128845130115 L 61.72542145487554,-20.22625257415048 A 64.32171459645491 64.32171459645491 0 0 1 82.85720336374581,-13.878746202426752 L 81.51415563165872,-11.196168563413165 L 89.34039247679203,-11.192064434059127 L 84.64793367319527,-17.4555163877782 L 83.30488594110818,-14.772938748764615 A 65.32171459645491 65.32171459645491 0 0 0 61.84457140462609,-21.219128845130115"/><text text-anchor="middle" pointer-events="none" font-size="8px" fill="#000000" x="52.135703553765794" y="-18.155850086002374" transform="rotate(180 52.135703553765794 -21.155850086002374)" font-family="sans-serif">trek</text></g><g class="relationship" transform="translate(230.71535367038751 65.81232363418736) rotate(238.10373462497353)"><path class="outline" fill="#A5ABB6" stroke="none" d="M 25 0.5 L 29.957626672260858 0.5 L 29.957626672260858 -0.5 L 25 -0.5 Z M 76.42247042226086 0.5 L 81.38009709452172 0.5 L 81.38009709452172 3.5 L 88.38009709452172 0 L 81.38009709452172 -3.5 L 81.38009709452172 -0.5 L 76.42247042226086 -0.5 Z"/><text text-anchor="middle" pointer-events="none" font-size="8px" fill="#000000" x="53.19004854726086" y="3" transform="rotate(180 53.19004854726086 0)" font-family="sans-serif">twowheeler</text></g><g class="relationship" transform="translate(230.71535367038751 65.81232363418736) rotate(238.10373462497353)"><path class="outline" fill="#A5ABB6" stroke="none" d="M 21.40063509461097,12.933012701892217 L 21.90063509461097,12.06698729810778 A 66.05969074097487 66.05969074097487 0 0 0 43.45841441366771,19.913550125547218 L 43.28475229199031,20.898355419752377 A 67.05969074097487 67.05969074097487 0 0 1 21.40063509461097,12.933012701892217 Z M 62.68918213971866,21.466960668706008 L 62.57348369868963,20.473676283072436 A 66.05969074097487 66.05969074097487 0 0 0 84.55373219450304,13.902902094561849 L 83.20843744378011,11.221450615665146 L 91.03466810371584,11.210789589357788 L 86.34745852880029,17.47817073309079 L 85.00216377807736,14.796719254194084 A 67.05969074097487 67.05969074097487 0 0 1 62.68918213971866,21.466960668706008"/><text text-anchor="middle" pointer-events="none" font-size="8px" fill="#000000" x="52.98092812985718" y="24.388750092789707" transform="rotate(180 52.98092812985718 21.388750092789707)" font-family="sans-serif">trek</text></g><g class="relationship" transform="translate(238.0988787552602 173.78554047851796) rotate(266.08803679291213)"><path class="outline" fill="#A5ABB6" stroke="none" d="M 24.018736134675446,6.953439040707552 L 24.277555179777966,5.987513214418485 A 108.15184540049457 108.15184540049457 0 0 0 39.63908703621521,8.932672542786463 L 39.52230469700108,9.92583007573262 A 109.15184540049457 109.15184540049457 0 0 1 24.018736134675446,6.953439040707552 Z M 61.59478243180585,10.27360411191566 L 61.50934668067237,9.277260430032612 A 108.15184540049457 108.15184540049457 0 0 0 76.95603822624436,6.81751557705227 L 76.2712586294908,3.8967148471376083 L 83.88536986217083,5.706496639613056 L 77.86907768858245,10.71191655027182 L 77.1842980918289,7.791115820357157 A 109.15184540049457 109.15184540049457 0 0 1 61.59478243180585,10.27360411191566"/><text text-anchor="middle" pointer-events="none" font-size="8px" fill="#000000" x="50.55760613105974" y="13.159213992541225" transform="rotate(180 50.55760613105974 10.159213992541225)" font-family="sans-serif">road</text></g><g class="relationship" transform="translate(238.0988787552602 173.78554047851796) rotate(203.59117260512386)"><path class="outline" fill="#A5ABB6" stroke="none" d="M 21.40063509461097,12.933012701892217 L 21.90063509461097,12.06698729810778 A 62.160844262725085 62.160844262725085 0 0 0 41.57482686668618,19.339505257133837 L 41.3913314445346,20.322525821542037 A 63.160844262725085 63.160844262725085 0 0 1 21.40063509461097,12.933012701892217 Z M 60.79544039137687,20.90969174389884 L 60.67171843584222,19.917374819867675 A 62.160844262725085 62.160844262725085 0 0 0 80.7496417605353,13.847750917475267 L 79.40947731148775,11.163731683283924 L 87.23571404848968,11.168037075396214 L 82.53652769259868,17.426443229730392 L 81.19636324355113,14.742423995539049 A 63.160844262725085 63.160844262725085 0 0 1 60.79544039137687,20.90969174389884"/><text text-anchor="middle" pointer-events="none" font-size="8px" fill="#000000" x="51.08581537532258" y="23.866292978442758" transform="rotate(180 51.08581537532258 20.866292978442758)" font-family="sans-serif">trek</text></g><g class="relationship" transform="translate(137.65643595720687 129.92174357908254) rotate(496.179078509709)"><path class="outline" fill="#A5ABB6" stroke="none" d="M 24.018736134675446,-6.953439040707552 L 24.277555179777966,-5.987513214418485 A 124.02190205478553 124.02190205478553 0 0 1 44.93651487409964,-9.684681922931603 L 44.84427092059019,-10.680418360469645 A 125.02190205478553 125.02190205478553 0 0 0 24.018736134675446,-6.953439040707552 Z M 64.23624531371023,-10.96617133868665 L 64.17338064965425,-9.968149277801658 A 124.02190205478553 124.02190205478553 0 0 1 84.93230714041434,-6.881299255200085 L 84.2415697490525,-3.9619017392433 L 91.85935757620715,-5.756144928015274 L 85.85329032889678,-10.7738292764758 L 85.16255293753494,-7.854431760519015 A 125.02190205478553 125.02190205478553 0 0 0 64.23624531371023,-10.96617133868665"/><text text-anchor="middle" pointer-events="none" font-size="8px" fill="#000000" x="54.54207582897287" y="-7.699939980841137" transform="rotate(180 54.54207582897287 -10.699939980841137)" font-family="sans-serif">trek</text></g><g class="relationship" transform="translate(53.82616692185897 210.3708622945691) rotate(205.9063047119251)"><path class="outline" fill="#A5ABB6" stroke="none" d="M 24.018736134675446,-6.953439040707552 L 24.277555179777966,-5.987513214418485 A 120.32781009409088 120.32781009409088 0 0 1 30.662355439455304,-7.51293532943896 L 30.4565981117952,-8.491538375680989 A 121.32781009409088 121.32781009409088 0 0 0 24.018736134675446,-6.953439040707552 Z M 76.82157147113543,-9.18522974258039 L 76.6451825017233,-8.200909199530656 A 120.32781009409088 120.32781009409088 0 0 1 83.072760066235,-6.867179977703716 L 82.38334148651505,-3.9474707418487287 L 90.00031804651664,-5.745154830999645 L 83.99198483919496,-10.760125625510366 L 83.302566259475,-7.8404163896553785 A 121.32781009409088 121.32781009409088 0 0 0 76.82157147113543,-9.18522974258039"/><text text-anchor="middle" pointer-events="none" font-size="8px" fill="#000000" x="53.61311636777069" y="-7.574062676794938" transform="rotate(180 53.61311636777069 -10.574062676794938)" font-family="sans-serif">twowheeler</text></g><g class="relationship" transform="translate(-49.015882984868405 160.4194604530872) rotate(276.5030189822123)"><path class="outline" fill="#A5ABB6" stroke="none" d="M 24.018736134675446,6.953439040707552 L 24.277555179777966,5.987513214418485 A 120.29035072618775 120.29035072618775 0 0 0 30.653074891322536,7.510926837836095 L 30.44725693627467,8.489517134834756 A 121.29035072618775 121.29035072618775 0 0 1 24.018736134675446,6.953439040707552 Z M 76.81211027719091,9.183314511606568 L 76.63566490244114,8.19900407798849 A 120.29035072618775 120.29035072618775 0 0 0 83.05391217870383,6.867034648514617 L 82.36450717351312,3.9473222073968284 L 89.98147537551046,5.745041709922591 L 83.97311885229144,10.759984570005003 L 83.28371384710073,7.8402721288872135 A 121.29035072618775 121.29035072618775 0 0 1 76.81211027719091,9.183314511606568"/><text text-anchor="middle" pointer-events="none" font-size="8px" fill="#000000" x="53.603700794866235" y="13.572786270717543" font-family="sans-serif">twowheeler</text></g><g class="relationship" transform="translate(-49.015882984868405 160.4194604530872) rotate(276.5030189822123)"><path class="outline" fill="#A5ABB6" stroke="none" d="M 24.018736134675446,-6.953439040707552 L 24.277555179777966,-5.987513214418485 A 120.29035072618775 120.29035072618775 0 0 1 44.00034792056734,-9.54388266601849 L 43.90548876602731,-10.53937336954111 A 121.29035072618775 121.29035072618775 0 0 0 24.018736134675446,-6.953439040707552 Z M 63.29857035070651,-10.829568812025087 L 63.23353977396479,-9.83168554024995 A 120.29035072618775 120.29035072618775 0 0 1 83.05391217870383,-6.867034648514617 L 82.36450717351312,-3.9473222073968284 L 89.98147537551046,-5.745041709922591 L 83.97311885229144,-10.759984570005003 L 83.28371384710073,-7.8402721288872135 A 121.29035072618775 121.29035072618775 0 0 0 63.29857035070651,-10.829568812025087"/><text text-anchor="middle" pointer-events="none" font-size="8px" fill="#000000" x="53.603700794866185" y="-7.572786270717543" font-family="sans-serif">trek</text></g><g class="relationship" transform="translate(53.82616692185897 210.3708622945691) rotate(205.9063047119251)"><path class="outline" fill="#A5ABB6" stroke="none" d="M 24.018736134675446,6.953439040707552 L 24.277555179777966,5.987513214418485 A 120.32781009409088 120.32781009409088 0 0 0 44.00974056434888,9.54529986902692 L 43.91490842608977,10.540793146529694 A 121.32781009409088 121.32781009409088 0 0 1 24.018736134675446,6.953439040707552 Z M 63.30797874289065,10.830943328482249 L 63.242970607911815,9.833058594464049 A 120.32781009409088 120.32781009409088 0 0 0 83.072760066235,6.867179977703716 L 82.38334148651505,3.9474707418487287 L 90.00031804651664,5.745154830999645 L 83.99198483919496,10.760125625510366 L 83.302566259475,7.8404163896553785 A 121.32781009409088 121.32781009409088 0 0 1 63.30797874289065,10.830943328482249"/><text text-anchor="middle" pointer-events="none" font-size="8px" fill="#000000" x="53.613116367770715" y="13.574062676794938" transform="rotate(180 53.613116367770715 10.574062676794938)" font-family="sans-serif">trek</text></g><g class="relationship" transform="translate(137.65643595720687 129.92174357908254) rotate(496.179078509709)"><path class="outline" fill="#A5ABB6" stroke="none" d="M 24.018736134675446,6.953439040707552 L 24.277555179777966,5.987513214418485 A 124.02190205478553 124.02190205478553 0 0 0 31.578527045502327,7.708955270124363 L 31.3785764078727,8.688761241994044 A 125.02190205478553 125.02190205478553 0 0 1 24.018736134675446,6.953439040707552 Z M 77.75477715195414,9.372143821424032 L 77.58378317922455,8.386871746669982 A 124.02190205478553 124.02190205478553 0 0 0 84.93230714041434,6.881299255200085 L 84.2415697490525,3.9619017392433 L 91.85935757620715,5.756144928015274 L 85.85329032889678,10.7738292764758 L 85.16255293753494,7.854431760519015 A 125.02190205478553 125.02190205478553 0 0 1 77.75477715195414,9.372143821424032"/><text text-anchor="middle" pointer-events="none" font-size="8px" fill="#000000" x="54.542075828972884" y="13.699939980841137" transform="rotate(180 54.542075828972884 10.699939980841137)" font-family="sans-serif">twowheeler</text></g><g class="relationship" transform="translate(137.65643595720687 129.92174357908254) rotate(238.67841093350694)"><path class="outline" fill="#A5ABB6" stroke="none" d="M 25 0.5 L 46.00985965715061 0.5 L 46.00985965715061 -0.5 L 25 -0.5 Z M 65.34579715715061 0.5 L 86.35565681430123 0.5 L 86.35565681430123 3.5 L 93.35565681430123 0 L 86.35565681430123 -3.5 L 86.35565681430123 -0.5 L 65.34579715715061 -0.5 Z"/><text text-anchor="middle" pointer-events="none" font-size="8px" fill="#000000" x="55.67782840715061" y="3" transform="rotate(180 55.67782840715061 0)" font-family="sans-serif">trek</text></g><g class="relationship" transform="translate(238.0988787552602 173.78554047851796) rotate(203.59117260512386)"><path class="outline" fill="#A5ABB6" stroke="none" d="M 25 0.5 L 40.295411125042094 0.5 L 40.295411125042094 -0.5 L 25 -0.5 Z M 62.307129875042094 0.5 L 77.60254100008419 0.5 L 77.60254100008419 3.5 L 84.60254100008419 0 L 77.60254100008419 -3.5 L 77.60254100008419 -0.5 L 62.307129875042094 -0.5 Z"/><text text-anchor="middle" pointer-events="none" font-size="8px" fill="#000000" x="51.301270500042094" y="3" transform="rotate(180 51.301270500042094 0)" font-family="sans-serif">road</text></g><g class="relationship" transform="translate(238.0988787552602 173.78554047851796) rotate(203.59117260512386)"><path class="outline" fill="#A5ABB6" stroke="none" d="M 21.40063509461097,-12.933012701892217 L 21.90063509461097,-12.06698729810778 A 62.160844262725085 62.160844262725085 0 0 1 21.943883638858118,-12.091933704004468 L 21.444579391059687,-12.95836042804433 A 63.160844262725085 63.160844262725085 0 0 0 21.40063509461097,-12.933012701892217 Z M 81.1509667148497,-14.765068279438417 L 80.704963976639,-13.870036683622637 A 62.160844262725085 62.160844262725085 0 0 1 80.7496417605353,-13.847750917475267 L 79.40947731148775,-11.163731683283924 L 87.23571404848968,-11.168037075396214 L 82.53652769259868,-17.426443229730392 L 81.19636324355113,-14.742423995539049 A 63.160844262725085 63.160844262725085 0 0 0 81.1509667148497,-14.765068279438417"/><text text-anchor="middle" pointer-events="none" font-size="8px" fill="#000000" x="51.08581537532256" y="-17.866292978442758" transform="rotate(180 51.08581537532256 -20.866292978442758)" font-family="sans-serif">PublicTransport</text></g><g class="relationship" transform="translate(137.65643595720687 129.92174357908254) rotate(325.43657116592885)"><path class="outline" fill="#A5ABB6" stroke="none" d="M 25 0.5 L 43.33419911022341 0.5 L 43.33419911022341 -0.5 L 25 -0.5 Z M 62.67013661022341 0.5 L 81.00433572044682 0.5 L 81.00433572044682 3.5 L 88.00433572044682 0 L 81.00433572044682 -3.5 L 81.00433572044682 -0.5 L 62.67013661022341 -0.5 Z"/><text text-anchor="middle" pointer-events="none" font-size="8px" fill="#000000" x="53.00216786022341" y="3" font-family="sans-serif">trek</text></g></g><g class="layer nodes"><g class="node" transform="translate(238.0988787552602,173.78554047851796)"><circle class="outline" cx="0" cy="0" r="25" fill="#8DCC93" stroke="#5db665" stroke-width="2px"/><text text-anchor="middle" pointer-events="none" font-family="sans-serif" dy="1.5625" font-size="25" fill="#2A2C34"/><text text-anchor="middle" pointer-events="none" x="0" y="5" font-size="10px" fill="#2A2C34" font-family="sans-serif"> Darjeeling</text></g><g class="node" transform="translate(-36.06936600980962,46.84254676261538)"><circle class="outline" cx="0" cy="0" r="25" fill="#ECB5C9" stroke="#da7298" stroke-width="2px"/><text text-anchor="middle" pointer-events="none" font-family="sans-serif" dy="1.5625" font-size="25" fill="#2A2C34"/><text text-anchor="middle" pointer-events="none" x="0" y="5" font-size="10px" fill="#2A2C34" font-family="sans-serif"> Sandak…</text></g><g class="node" transform="translate(230.71535367038751,65.81232363418736)"><circle class="outline" cx="0" cy="0" r="25" fill="#D9C8AE" stroke="#c0a378" stroke-width="2px"/><text text-anchor="middle" pointer-events="none" font-family="sans-serif" dy="1.5625" font-size="25" fill="#2A2C34"/><text text-anchor="middle" pointer-events="none" x="0" y="5" font-size="10px" fill="#2A2C34" font-family="sans-serif"> Tumbling</text></g><g class="node" transform="translate(170.80723824113429,-30.44807384514181)"><circle class="outline" cx="0" cy="0" r="25" fill="#D9C8AE" stroke="#c0a378" stroke-width="2px"/><text text-anchor="middle" pointer-events="none" font-family="sans-serif" dy="1.5625" font-size="25" fill="#2A2C34"/><text text-anchor="middle" pointer-events="none" x="0" y="5" font-size="10px" fill="#2A2C34" font-family="sans-serif"> Gairibus</text></g><g class="node" transform="translate(76.13030878182217,28.81488340261858)"><circle class="outline" cx="0" cy="0" r="25" fill="#D9C8AE" stroke="#c0a378" stroke-width="2px"/><text text-anchor="middle" pointer-events="none" font-family="sans-serif" dy="1.5625" font-size="25" fill="#2A2C34"/><text text-anchor="middle" pointer-events="none" x="0" y="5" font-size="10px" fill="#2A2C34" font-family="sans-serif"> BhikeBh…</text></g><g class="node" transform="translate(137.65643595720687,129.92174357908254)"><circle class="outline" cx="0" cy="0" r="25" fill="#8DCC93" stroke="#5db665" stroke-width="2px"/><text text-anchor="middle" pointer-events="none" font-family="sans-serif" dy="1.5625" font-size="25" fill="#2A2C34"/><text text-anchor="middle" pointer-events="none" x="0" y="5" font-size="10px" fill="#2A2C34" font-family="sans-serif"> Rimbik</text></g><g class="node" transform="translate(53.82616692185897,210.3708622945691)"><circle class="outline" cx="0" cy="0" r="25" fill="#D9C8AE" stroke="#c0a378" stroke-width="2px"/><text text-anchor="middle" pointer-events="none" font-family="sans-serif" dy="1.5625" font-size="25" fill="#2A2C34"/><text text-anchor="middle" pointer-events="none" x="0" y="5" font-size="10px" fill="#2A2C34" font-family="sans-serif"> Sirikhola</text></g><g class="node" transform="translate(-49.015882984868405,160.4194604530872)"><circle class="outline" cx="0" cy="0" r="25" fill="#D9C8AE" stroke="#c0a378" stroke-width="2px"/><text text-anchor="middle" pointer-events="none" font-family="sans-serif" dy="1.5625" font-size="25" fill="#2A2C34"/><text text-anchor="middle" pointer-events="none" x="0" y="5" font-size="10px" fill="#2A2C34" font-family="sans-serif"> Gurdum</text></g></g></svg>