<svg xmlns="http://www.w3.org/2000/svg" width="406.2101745605469" height="171.07151794433594" viewBox="-131.96218872070312 -24.623233795166016 406.2101745605469 171.07151794433594"><title>Neo4j Graph Visualization</title><desc>Created using Neo4j (http://www.neo4j.com/)</desc><g class="layer relationships"><g class="relationship" transform="translate(-102.96218593964666 4.376767128148071) rotate(387.23866841921136)"><path class="outline" fill="#A5ABB6" stroke="none" d="M 21.40063509461097,12.933012701892217 L 21.90063509461097,12.06698729810778 A 89.42092720801436 89.42092720801436 0 0 0 34.45588454779515,18.065658342214917 L 34.096290712718684,18.99876727142683 A 90.42092720801436 90.42092720801436 0 0 1 21.40063509461097,12.933012701892217 Z M 94.9361307492772,20.496074716444056 L 94.62287326646576,19.54640648518503 A 89.42092720801436 89.42092720801436 0 0 0 107.4580064561562,14.172609026218293 L 106.08762563928595,11.503890903831813 L 113.91341221120304,11.41984014058545 L 109.28518087864988,17.730899856066934 L 107.91480006177963,15.062181733680454 A 90.42092720801436 90.42092720801436 0 0 1 94.9361307492772,20.496074716444056"/><text text-anchor="middle" pointer-events="none" font-size="8px" fill="#000000" x="64.39875695345626" y="27.519900461065447" font-family="sans-serif">PublicTransport</text></g><g class="relationship" transform="translate(18.092251780566244 66.69361049215904) rotate(381.41044570316717)"><path class="outline" fill="#A5ABB6" stroke="none" d="M 25 0.5 L 44.190736127122776 0.5 L 44.190736127122776 -0.5 L 25 -0.5 Z M 63.526673627122776 0.5 L 82.71740975424555 0.5 L 82.71740975424555 3.5 L 89.71740975424555 0 L 82.71740975424555 -3.5 L 82.71740975424555 -0.5 L 63.526673627122776 -0.5 Z"/><text text-anchor="middle" pointer-events="none" font-size="8px" fill="#000000" x="53.858704877122776" y="3" font-family="sans-serif">trek</text></g><g class="relationship" transform="translate(124.89293037702757 108.57080180269035) rotate(364.21854260591545)"><path class="outline" fill="#A5ABB6" stroke="none" d="M 25 0.5 L 47.17303642909752 0.5 L 47.17303642909752 -0.5 L 25 -0.5 Z M 66.50897392909752 0.5 L 88.68201035819504 0.5 L 88.68201035819504 3.5 L 95.68201035819504 0 L 88.68201035819504 -3.5 L 88.68201035819504 -0.5 L 66.50897392909752 -0.5 Z"/><text text-anchor="middle" pointer-events="none" font-size="8px" fill="#000000" x="56.84100517909752" y="3" font-family="sans-serif">trek</text></g><g class="relationship" transform="translate(-102.96218593964666 4.376767128148071) rotate(387.23866841921136)"><path class="outline" fill="#A5ABB6" stroke="none" d="M 25 0.5 L 53.57050557387852 0.5 L 53.57050557387852 -0.5 L 25 -0.5 Z M 75.58222432387852 0.5 L 104.15272989775704 0.5 L 104.15272989775704 3.5 L 111.15272989775704 0 L 104.15272989775704 -3.5 L 104.15272989775704 -0.5 L 75.58222432387852 -0.5 Z"/><text text-anchor="middle" pointer-events="none" font-size="8px" fill="#000000" x="64.57636494887852" y="3" font-family="sans-serif">road</text></g><g class="relationship" transform="translate(-102.96218593964666 4.376767128148071) rotate(387.23866841921136)"><path class="outline" fill="#A5ABB6" stroke="none" d="M 21.40063509461097,-12.933012701892217 L 21.90063509461097,-12.06698729810778 A 89.42092720801436 89.42092720801436 0 0 1 54.83096864922164,-23.267778650531525 L 54.69923069461518,-24.25906322688492 A 90.42092720801436 90.42092720801436 0 0 0 21.40063509461097,-12.933012701892217 Z M 74.0993716073085,-24.736513124936977 L 74.01655590147678,-23.73994824552993 A 89.42092720801436 89.42092720801436 0 0 1 107.4580064561562,-14.172609026218293 L 106.08762563928595,-11.503890903831813 L 113.91341221120304,-11.41984014058545 L 109.28518087864988,-17.730899856066934 L 107.91480006177963,-15.062181733680454 A 90.42092720801436 90.42092720801436 0 0 0 74.0993716073085,-24.736513124936977"/><text text-anchor="middle" pointer-events="none" font-size="8px" fill="#000000" x="64.39875695345626" y="-21.519900461065447" font-family="sans-serif">trek</text></g></g><g class="layer nodes"><g class="node" transform="translate(-102.96218593964666,4.376767128148071)"><circle class="outline" cx="0" cy="0" r="25" fill="#8DCC93" stroke="#5db665" stroke-width="2px"/><text text-anchor="middle" pointer-events="none" font-family="sans-serif" dy="1.5625" font-size="25" fill="#2A2C34"/><text text-anchor="middle" pointer-events="none" x="0" y="5" font-size="10px" fill="#2A2C34" font-family="sans-serif"> Darjeeling</text></g><g class="node" transform="translate(245.24797973475626,117.44828557874916)"><circle class="outline" cx="0" cy="0" r="25" fill="#ECB5C9" stroke="#da7298" stroke-width="2px"/><text text-anchor="middle" pointer-events="none" font-family="sans-serif" dy="1.5625" font-size="25" fill="#2A2C34"/><text text-anchor="middle" pointer-events="none" x="0" y="5" font-size="10px" fill="#2A2C34" font-family="sans-serif"> Sandak…</text></g><g class="node" transform="translate(18.092251780566244,66.69361049215904)"><circle class="outline" cx="0" cy="0" r="25" fill="#8DCC93" stroke="#5db665" stroke-width="2px"/><text text-anchor="middle" pointer-events="none" font-family="sans-serif" dy="1.5625" font-size="25" fill="#2A2C34"/><text text-anchor="middle" pointer-events="none" x="0" y="5" font-size="10px" fill="#2A2C34" font-family="sans-serif"> Rimbik</text></g><g class="node" transform="translate(124.89293037702757,108.57080180269035)"><circle class="outline" cx="0" cy="0" r="25" fill="#D9C8AE" stroke="#c0a378" stroke-width="2px"/><text text-anchor="middle" pointer-events="none" font-family="sans-serif" dy="1.5625" font-size="25" fill="#2A2C34"/><text text-anchor="middle" pointer-events="none" x="0" y="5" font-size="10px" fill="#2A2C34" font-family="sans-serif"> BhikeBh…</text></g></g></svg>